M48
METRIC,LZ,000.000
;FILE_FORMAT=3:3
;TYPE=PLATED
;Layer: PTH_Through_Via
;EasyEDA v6.5.51, 2025-11-13 11:15:01
;eeee07b8e3394328a7c479296e6499dd,d08b7503fb3042b1851704d71a85d887,10
;Gerber Generator version 0.2
;Holesize 1 = 0.306 mm
T01C0.306
%
G05
G90
T01
X015264Y068399
X016125Y067903
X061096Y080994
X018649Y067479
X050761Y085114
X017689Y064028
X021248Y067391
X031625Y064010
X018032Y068162
X026463Y067007
X056743Y060586
X044870Y073972
X023218Y079704
X035725Y079481
X047634Y079157
X043912Y065661
X032172Y086658
X027255Y067158
X046728Y071897
X052906Y059160
X021907Y090226
X017591Y085985
X068028Y073789
X059160Y072417
X020419Y084792
X053151Y074267
X059145Y066129
X025755Y084603
X020922Y087642
X018075Y084795
X023909Y081437
X047962Y071417
X054167Y060765
X052931Y059963
X047706Y070174
X017037Y067803
M30
