M48
METRIC,LZ,000.000
;FILE_FORMAT=3:3
;TYPE=PLATED
;Layer: PTH_Through
;EasyEDA v6.5.51, 2025-11-13 11:15:01
;eeee07b8e3394328a7c479296e6499dd,d08b7503fb3042b1851704d71a85d887,10
;Gerber Generator version 0.2
;Holesize 1 = 0.306 mm
T01C0.306
;Holesize 2 = 0.501 mm
T02C0.501
;Holesize 3 = 0.701 mm
T03C0.701
;Holesize 4 = 0.889 mm
T04C0.889
;Holesize 5 = 0.915 mm
T05C0.915
;Holesize 6 = 1.400 mm
T06C1.400
%
G05
G90
T01
X015264Y068399
X016125Y067903
X061096Y080994
X018649Y067479
X050761Y085114
X017689Y064028
X021248Y067391
X031625Y064010
X018032Y068162
X026463Y067007
X056743Y060586
X044870Y073972
X023218Y079704
X035725Y079481
X047634Y079157
X043912Y065661
X032172Y086658
X027255Y067158
X046728Y071897
X052906Y059160
X021907Y090226
X017591Y085985
X068028Y073789
X059160Y072417
X020419Y084792
X053151Y074267
X059145Y066129
X025755Y084603
X020922Y087642
X018075Y084795
X023909Y081437
X047962Y071417
X054167Y060765
X052931Y059963
X047706Y070174
X017037Y067803
T02
X074193Y061043G85X074193Y061743
X067793Y061043G85X067793Y061743
T03
X086487Y084058
X086487Y082058
T04
X018669Y089154
X021209Y089154
X023749Y089154
X026289Y089154
X028829Y089154
X031369Y089154
X033909Y089154
X036449Y089154
X038989Y089154
X041529Y089154
X044069Y089154
X046609Y089154
X049149Y089154
X051689Y089154
X054229Y089154
X056769Y089154
X010795Y089154
X013335Y089154
X070104Y089599
X070104Y085439
X070104Y081280
X076454Y089599
X076454Y085439
X076454Y081280
T05
X015875Y089154
T06
X086106Y074168
X086106Y069088
M30
