G04 Layer: TopLayer*
G04 EasyEDA v6.5.51, 2025-11-13 11:15:01*
G04 eeee07b8e3394328a7c479296e6499dd,d08b7503fb3042b1851704d71a85d887,10*
G04 Gerber Generator version 0.2*
G04 Scale: 100 percent, Rotated: No, Reflected: No *
G04 Dimensions in millimeters *
G04 leading zeros omitted , absolute positions ,4 integer and 5 decimal *
%FSLAX45Y45*%
%MOMM*%

%AMMACRO1*21,1,$1,$2,0,0,$3*%
%ADD10C,0.2540*%
%ADD11R,0.8000X0.9000*%
%ADD12R,1.0000X0.8999*%
%ADD13MACRO1,0.672X1.575X90.0000*%
%ADD14R,1.2500X0.7000*%
%ADD15R,0.0107X0.7000*%
%ADD16MACRO1,0.864X0.8065X90.0000*%
%ADD17MACRO1,0.864X0.8065X0.0000*%
%ADD18R,0.8640X0.8065*%
%ADD19R,3.5000X3.5000*%
%ADD20O,0.28001X0.899998*%
%ADD21O,0.899998X0.28001*%
%ADD22R,0.9000X2.4000*%
%ADD23R,2.4000X0.9000*%
%ADD24R,5.0000X5.0000*%
%ADD25R,0.4000X1.3000*%
%ADD26R,1.6000X1.2000*%
%ADD27MACRO1,1.2X1.2X-90.0000*%
%ADD28C,1.2000*%
%ADD29R,1.5748X1.5748*%
%ADD30C,1.5748*%
%ADD31C,2.2000*%
%ADD32O,1.099998X1.799996*%
%ADD33C,0.6100*%

%LPD*%
D10*
X5939612Y6400774D02*
G01*
X5970612Y6400774D01*
X5975332Y6405493D01*
X6076932Y6405493D01*
X6180206Y6405493D01*
X6197600Y6388100D01*
X6324600Y6261100D01*
X6324600Y6032500D01*
X6324600Y5980303D01*
X6359400Y5945502D01*
X6910702Y5945502D01*
X7035800Y6070600D01*
X7087100Y6121900D01*
X7087100Y6204094D01*
X7087100Y6305694D01*
X7099300Y6317894D01*
X7099300Y6408293D01*
X5939612Y6450812D02*
G01*
X5970612Y6450812D01*
X5975332Y6446093D01*
X6076932Y6446093D01*
X6197023Y6446093D01*
X6214417Y6428699D01*
X6365199Y6277917D01*
X6365199Y6032500D01*
X6365199Y5997120D01*
X6376217Y5986101D01*
X6893885Y5986101D01*
X7018982Y6111199D01*
X7046501Y6138717D01*
X7046501Y6204094D01*
X7046501Y6305694D01*
X7034301Y6317894D01*
X7034301Y6408293D01*
X1338681Y6572224D02*
G01*
X1338681Y6720128D01*
X1526387Y6839940D02*
G01*
X1406575Y6720128D01*
X1338681Y6720128D01*
X6860641Y8605697D02*
G01*
X7117232Y8862288D01*
X7117232Y9059290D01*
X7095337Y9081185D01*
X2112670Y9081185D01*
X1973554Y8942070D01*
X1973554Y8915400D01*
X6177813Y8534400D02*
G01*
X6177813Y8602649D01*
X6180861Y8605697D01*
X6860641Y8605697D01*
X6903745Y8128000D02*
G01*
X6860641Y8171103D01*
X6860641Y8605697D01*
X1866900Y8915400D02*
G01*
X1973554Y8915400D01*
X6109563Y8534400D02*
G01*
X6177813Y8534400D01*
X7010400Y8128000D02*
G01*
X6903745Y8128000D01*
X1465681Y6720128D02*
G01*
X1489430Y6720128D01*
X1559560Y6790258D01*
X1612468Y6790258D01*
X1465681Y6572224D02*
G01*
X1465681Y6720128D01*
X6109563Y8191500D02*
G01*
X6109563Y8099425D01*
X1719681Y6572224D02*
G01*
X1719681Y6720128D01*
X1864918Y6747890D02*
G01*
X1799793Y6747890D01*
X1772030Y6720128D01*
X1719681Y6720128D01*
X1846681Y6572224D02*
G01*
X1846681Y6424295D01*
X1846681Y6424295D02*
G01*
X1790471Y6424295D01*
X1768932Y6402755D01*
X5076139Y8511362D02*
G01*
X5076139Y8822639D01*
X5168900Y8915400D01*
X1973681Y6720128D02*
G01*
X1992655Y6739102D01*
X2124760Y6739102D01*
X1973681Y6572224D02*
G01*
X1973681Y6720128D01*
X2100681Y6424295D02*
G01*
X2123947Y6401028D01*
X3162528Y6401028D01*
X2100681Y6572224D02*
G01*
X2100681Y6424295D01*
X2227681Y6720128D02*
G01*
X2131568Y6816242D01*
X1803222Y6816242D01*
X2227681Y6572224D02*
G01*
X2227681Y6720128D01*
X2646324Y6700723D02*
G01*
X2626918Y6720128D01*
X2481681Y6720128D01*
X2481681Y6572224D02*
G01*
X2481681Y6720128D01*
X5689625Y6150787D02*
G01*
X5689625Y6073952D01*
X5674283Y6058611D01*
X4063060Y7948142D02*
G01*
X3572459Y7948142D01*
X3987800Y8141614D02*
G01*
X4023461Y8141614D01*
X4063060Y8102015D01*
X4063060Y7948142D01*
X4063060Y7948142D02*
G01*
X4063060Y7821142D01*
X4487036Y7397165D01*
X1211681Y8312175D02*
G01*
X1211681Y8164271D01*
X2321839Y7970367D02*
G01*
X1405585Y7970367D01*
X1211681Y8164271D01*
X3987800Y8175726D02*
G01*
X3987800Y8141614D01*
X4550409Y7950200D02*
G01*
X4728895Y7950200D01*
X4763414Y7915681D01*
X4460011Y7950200D02*
G01*
X4550409Y7950200D01*
X4460011Y7950200D02*
G01*
X4550409Y7950200D01*
X4391228Y6566077D02*
G01*
X4416450Y6591300D01*
X1084681Y6424295D02*
G01*
X1179728Y6329248D01*
X4154398Y6329248D01*
X4391228Y6566077D01*
X4484674Y6591300D02*
G01*
X4416450Y6591300D01*
X1084681Y6572224D02*
G01*
X1084681Y6424295D01*
X5315102Y8407400D02*
G01*
X5247182Y8407400D01*
X4550409Y7950200D02*
G01*
X4550409Y8085810D01*
X4774971Y8310371D01*
X5218074Y8310371D01*
X5247182Y8339480D01*
X5247182Y8407400D01*
X3217240Y8665794D02*
G01*
X3208477Y8657031D01*
X1281607Y8657031D01*
X1084681Y8460104D01*
X1084681Y8312175D02*
G01*
X1084681Y8460104D01*
X2354681Y6572224D02*
G01*
X2354681Y6720128D01*
X2725547Y6715836D02*
G01*
X2680461Y6760921D01*
X2395474Y6760921D01*
X2354681Y6720128D01*
X5290565Y5916015D02*
G01*
X5672200Y5916015D01*
X5839739Y6083554D01*
X5839739Y6150787D01*
X4672812Y7189749D02*
G01*
X4672812Y7270495D01*
X4672812Y7270495D02*
G01*
X4750409Y7270495D01*
X4660011Y7270495D02*
G01*
X4672812Y7270495D01*
X4750409Y7270495D02*
G01*
X4750409Y7855204D01*
X4660011Y7855204D02*
G01*
X4750409Y7855204D01*
X2882900Y8915400D02*
G01*
X2772511Y8805011D01*
X2331948Y8805011D01*
X2247900Y8889060D01*
X2247900Y8965412D01*
X2190699Y9022613D01*
X1846681Y8312175D02*
G01*
X1866061Y8331555D01*
X1866061Y8517762D01*
X1785365Y8598458D01*
X1759102Y8598458D01*
X6706590Y7350912D02*
G01*
X6734606Y7378928D01*
X6802805Y7378928D01*
X6599936Y7350912D02*
G01*
X6706590Y7350912D01*
X7334402Y7048500D02*
G01*
X8242300Y7048500D01*
X8610600Y7416800D01*
X7300442Y7048500D02*
G01*
X7334402Y7048500D01*
X7300442Y7048500D02*
G01*
X7266482Y7048500D01*
X6969302Y6408293D02*
G01*
X6969302Y6683400D01*
X7266482Y6980580D01*
X7266482Y7048500D01*
X1628749Y7340498D02*
G01*
X830681Y8138566D01*
X830681Y8312175D01*
X1628749Y7340498D02*
G01*
X1862912Y7340498D01*
X1584985Y7340498D02*
G01*
X1628749Y7340498D01*
X5107177Y7073900D02*
G01*
X4815636Y6782358D01*
X3492500Y6782358D01*
X5915964Y7241667D02*
G01*
X5175097Y7241667D01*
X5175097Y7241667D02*
G01*
X5175097Y7518400D01*
X5175097Y7073900D02*
G01*
X5175097Y7241667D01*
X1862912Y6898512D02*
G01*
X1890725Y6870700D01*
X2475788Y6870700D01*
X1862912Y7340498D02*
G01*
X1862912Y6898512D01*
X1862912Y6898512D02*
G01*
X1009065Y6898512D01*
X830681Y6720128D01*
X2623718Y6870700D02*
G01*
X2475788Y6870700D01*
X830681Y6572224D02*
G01*
X830681Y6720128D01*
X7419314Y6139306D02*
G01*
X7178573Y5898565D01*
X6347206Y5898565D01*
X6128588Y6117183D01*
X6128588Y6216573D01*
X5994425Y6350736D01*
X5939612Y6350736D01*
X3492500Y6782358D02*
G01*
X3404158Y6870700D01*
X3401720Y6870700D01*
X6769303Y7048500D02*
G01*
X6766890Y7050912D01*
X6599936Y7050912D01*
X6769303Y6392290D02*
G01*
X6769303Y7048500D01*
X6769303Y7048500D02*
G01*
X7126477Y7048500D01*
X6779310Y6139306D02*
G01*
X6769303Y6149314D01*
X6769303Y6392290D01*
X5175097Y7073900D02*
G01*
X5107177Y7073900D01*
X7262317Y7327900D02*
G01*
X7262317Y7116419D01*
X7194397Y7048500D01*
X5175097Y7962900D02*
G01*
X5175097Y7518400D01*
X5175097Y8407400D02*
G01*
X5248198Y8480501D01*
X5375808Y8480501D01*
X5383199Y8473109D01*
X5383199Y8171002D01*
X5243017Y8030819D01*
X5243017Y7962900D01*
X3467100Y8247811D02*
G01*
X3626688Y8407400D01*
X5175097Y8407400D01*
X5175097Y7962900D02*
G01*
X5243017Y7962900D01*
X7194397Y7327900D02*
G01*
X7262317Y7327900D01*
X7645400Y8128000D02*
G01*
X8570899Y8128000D01*
X8648700Y8205800D01*
X3401720Y6870700D02*
G01*
X2623718Y6870700D01*
X3479800Y7444638D02*
G01*
X3479800Y7371740D01*
X3479800Y7371740D02*
G01*
X3425113Y7371740D01*
X3401720Y7348346D01*
X3401720Y6870700D01*
X3467100Y8174888D02*
G01*
X3467100Y8247811D01*
X7194397Y7048500D02*
G01*
X7126477Y7048500D01*
X3492500Y6709435D02*
G01*
X3492500Y6782358D01*
X7419314Y6270802D02*
G01*
X7273874Y6270802D01*
X7229297Y6315379D01*
X7429296Y6392290D02*
G01*
X7429296Y6280785D01*
X7419314Y6270802D01*
X7419314Y6139306D02*
G01*
X7419314Y6270802D01*
X7229297Y6408293D02*
G01*
X7229297Y6315379D01*
X1973681Y8312175D02*
G01*
X1973681Y8460104D01*
X1973681Y8460104D02*
G01*
X2022830Y8460104D01*
X2041880Y8479154D01*
X5914491Y6612915D02*
G01*
X5914491Y6576009D01*
X5939612Y6550888D01*
X5839739Y6650786D02*
G01*
X5877585Y6612940D01*
X5877585Y6612915D01*
X5914491Y6612915D01*
X5315102Y7426680D02*
G01*
X5315102Y7518400D01*
X5315102Y7962900D02*
G01*
X5315102Y7518400D01*
X2354681Y8460104D02*
G01*
X2354834Y8460257D01*
X2575483Y8460257D01*
X2354681Y8312175D02*
G01*
X2354681Y8460104D01*
X1719681Y8312175D02*
G01*
X1719681Y8460104D01*
X1719681Y8460104D02*
G01*
X1788083Y8460104D01*
X1807463Y8479485D01*
X2092197Y8764219D02*
G01*
X2985719Y8764219D01*
X3136900Y8915400D01*
X4460011Y7175500D02*
G01*
X4369587Y7175500D01*
X2481681Y8312175D02*
G01*
X2481681Y8164271D01*
X2481681Y8164271D02*
G01*
X3147771Y8164271D01*
X3723817Y7588224D01*
X3956862Y7588224D01*
X4369587Y7175500D01*
X2100681Y8460104D02*
G01*
X2246960Y8606383D01*
X3240684Y8606383D01*
X3521862Y8887561D01*
X3521862Y8957055D01*
X3602583Y9037777D01*
X4030522Y9037777D01*
X4152900Y8915400D01*
X2100681Y8312175D02*
G01*
X2100681Y8460104D01*
X4567097Y6667982D02*
G01*
X4524806Y6710273D01*
X4033520Y6710273D01*
X4567097Y6667982D02*
G01*
X4894224Y6667982D01*
X5243195Y7016953D01*
X5243195Y7139609D01*
X5250586Y7147001D01*
X6274815Y7147001D01*
X6328689Y7200874D01*
X4567097Y6667982D02*
G01*
X4567097Y6591300D01*
X6886193Y7380655D02*
G01*
X6886193Y7354722D01*
X6732346Y7200874D01*
X6328689Y7200874D01*
X3962400Y6710273D02*
G01*
X4033520Y6710273D01*
X6260236Y7848600D02*
G01*
X6418249Y7848600D01*
X6886193Y7380655D01*
X6260236Y8191500D02*
G01*
X6260236Y7848600D01*
X6886193Y7380655D02*
G01*
X6913143Y7407605D01*
X7254697Y7407605D01*
X7334402Y7327900D01*
X4635322Y6591300D02*
G01*
X4567097Y6591300D01*
X6260236Y8534400D02*
G01*
X6260236Y8191500D01*
X3467100Y8004886D02*
G01*
X3545027Y8004886D01*
X3987800Y8025079D02*
G01*
X3565220Y8025079D01*
X3545027Y8004886D01*
X3479800Y7274636D02*
G01*
X3557727Y7274636D01*
X3949700Y7294829D02*
G01*
X3577920Y7294829D01*
X3557727Y7274636D01*
X3492500Y6539433D02*
G01*
X3570427Y6539433D01*
X3962400Y6559626D02*
G01*
X3590620Y6559626D01*
X3570427Y6539433D01*
X5939612Y6500850D02*
G01*
X5994603Y6500850D01*
X6020866Y6527114D01*
X6020866Y6589395D01*
X5536361Y7073900D01*
X5315102Y7073900D01*
X3390900Y8915400D02*
G01*
X3384041Y8915400D01*
X3166440Y8697798D01*
X1195374Y8697798D01*
X957681Y8460104D01*
X957681Y8312175D02*
G01*
X957681Y8460104D01*
X2227681Y8312175D02*
G01*
X2227681Y8460104D01*
X2227681Y8460104D02*
G01*
X2330983Y8563406D01*
X3546906Y8563406D01*
X3898900Y8915400D01*
X1465681Y8312175D02*
G01*
X1465681Y8164271D01*
X1465681Y8164271D02*
G01*
X1486204Y8143747D01*
X2390927Y8143747D01*
X5639587Y6150787D02*
G01*
X5639587Y6106744D01*
X5609361Y6076518D01*
X5416677Y6076518D01*
X4796205Y7141718D02*
G01*
X4830114Y7175627D01*
X4830114Y7965490D01*
X4750409Y8045195D01*
X4796205Y7141718D02*
G01*
X4766436Y7141718D01*
X4705222Y7080504D01*
X4660011Y7080504D02*
G01*
X4705222Y7080504D01*
X4660011Y8045195D02*
G01*
X4750409Y8045195D01*
X5293106Y5996330D02*
G01*
X5694857Y5996330D01*
X5739663Y6041136D01*
X5739663Y6150787D01*
X3949700Y7445476D02*
G01*
X3949700Y7377252D01*
X3949700Y7377252D02*
G01*
X4017924Y7377252D01*
X4377766Y7017410D01*
X4770577Y7017410D01*
X1338681Y8164271D02*
G01*
X1429969Y8072983D01*
X2427401Y8072983D01*
X2450312Y8095894D01*
X3117773Y8095894D01*
X3768191Y7445476D01*
X3949700Y7445476D01*
X1338681Y8312175D02*
G01*
X1338681Y8164271D01*
X1703730Y6780301D02*
G01*
X1643557Y6720128D01*
X1592681Y6720128D01*
X1592681Y6572224D02*
G01*
X1592681Y6720128D01*
X7010400Y8959850D02*
G01*
X6408496Y8959850D01*
X6034659Y8586012D01*
X6034659Y7855280D01*
X6041339Y7848600D01*
X6109563Y7848600D02*
G01*
X6041339Y7848600D01*
D11*
G01*
X7334402Y7048500D03*
G01*
X7194397Y7048500D03*
G01*
X7334402Y7327900D03*
G01*
X7194397Y7327900D03*
G01*
X5315102Y7073900D03*
G01*
X5175097Y7073900D03*
G01*
X5315102Y7962900D03*
G01*
X5175097Y7962900D03*
G01*
X5315102Y7518400D03*
G01*
X5175097Y7518400D03*
G01*
X5315102Y8407400D03*
G01*
X5175097Y8407400D03*
D12*
G01*
X3492500Y6709435D03*
G01*
X3492500Y6539433D03*
G01*
X3479800Y7444638D03*
G01*
X3479800Y7274636D03*
G01*
X3467100Y8174888D03*
G01*
X3467100Y8004886D03*
D13*
G01*
X6599930Y7050913D03*
G01*
X6599930Y7350912D03*
G36*
X6235979Y7295883D02*
G01*
X6421399Y7295883D01*
X6425852Y7295776D01*
X6430294Y7295464D01*
X6434719Y7294943D01*
X6439113Y7294217D01*
X6443469Y7293282D01*
X6447774Y7292146D01*
X6452024Y7290810D01*
X6456205Y7289276D01*
X6460309Y7287547D01*
X6464330Y7285629D01*
X6468254Y7283523D01*
X6472077Y7281235D01*
X6475788Y7278771D01*
X6479379Y7276137D01*
X6482841Y7273338D01*
X6486171Y7270376D01*
X6489357Y7267265D01*
X6492394Y7264006D01*
X6495275Y7260610D01*
X6497993Y7257082D01*
X6500543Y7253429D01*
X6502918Y7249662D01*
X6505115Y7245786D01*
X6507129Y7241814D01*
X6508953Y7233884D01*
X6678686Y7233884D01*
X6678686Y7167885D01*
X6508953Y7167885D01*
X6507129Y7159950D01*
X6505115Y7155977D01*
X6502918Y7152101D01*
X6500543Y7148334D01*
X6497993Y7144682D01*
X6495275Y7141154D01*
X6492394Y7137758D01*
X6489357Y7134499D01*
X6486171Y7131387D01*
X6482841Y7128426D01*
X6479379Y7125627D01*
X6475788Y7122993D01*
X6472077Y7120529D01*
X6468254Y7118240D01*
X6464330Y7116135D01*
X6460309Y7114217D01*
X6456205Y7112487D01*
X6452024Y7110953D01*
X6447774Y7109617D01*
X6443469Y7108482D01*
X6439113Y7107547D01*
X6434719Y7106820D01*
X6430294Y7106300D01*
X6425852Y7105987D01*
X6421399Y7105881D01*
X6235979Y7105881D01*
X6231526Y7105987D01*
X6227084Y7106300D01*
X6222659Y7106820D01*
X6218265Y7107547D01*
X6213909Y7108482D01*
X6209604Y7109617D01*
X6205354Y7110953D01*
X6201173Y7112487D01*
X6197069Y7114217D01*
X6193048Y7116135D01*
X6189124Y7118240D01*
X6185301Y7120529D01*
X6181590Y7122993D01*
X6177998Y7125627D01*
X6174536Y7128426D01*
X6171206Y7131387D01*
X6168021Y7134499D01*
X6164983Y7137758D01*
X6162103Y7141154D01*
X6159385Y7144682D01*
X6156835Y7148334D01*
X6154460Y7152101D01*
X6152263Y7155977D01*
X6150249Y7159950D01*
X6148425Y7164014D01*
X6146792Y7168156D01*
X6145357Y7172373D01*
X6144120Y7176653D01*
X6143086Y7180986D01*
X6142255Y7185360D01*
X6141631Y7189772D01*
X6141214Y7194207D01*
X6141006Y7198654D01*
X6141006Y7203109D01*
X6141214Y7207557D01*
X6141631Y7211992D01*
X6142255Y7216404D01*
X6143086Y7220778D01*
X6144120Y7225111D01*
X6145357Y7229391D01*
X6146792Y7233607D01*
X6148425Y7237750D01*
X6150249Y7241814D01*
X6152263Y7245786D01*
X6154460Y7249662D01*
X6156835Y7253429D01*
X6159385Y7257082D01*
X6162103Y7260610D01*
X6164983Y7264006D01*
X6168021Y7267265D01*
X6171206Y7270376D01*
X6174536Y7273338D01*
X6177998Y7276137D01*
X6181590Y7278771D01*
X6185301Y7281235D01*
X6189124Y7283523D01*
X6193048Y7285629D01*
X6197069Y7287547D01*
X6201173Y7289276D01*
X6205354Y7290810D01*
X6209604Y7292146D01*
X6213909Y7293282D01*
X6218265Y7294217D01*
X6222659Y7294943D01*
X6227084Y7295464D01*
X6231526Y7295776D01*
X6235979Y7295883D01*
G37*
D14*
G01*
X4660011Y7855204D03*
G01*
X4660011Y8045195D03*
G01*
X4460011Y7950200D03*
G01*
X4660011Y7080504D03*
G01*
X4660011Y7270495D03*
G01*
X4460011Y7175500D03*
D16*
G01*
X4635331Y6591300D03*
G01*
X4484681Y6591300D03*
D17*
G01*
X3962400Y6710272D03*
D18*
G01*
X3962400Y6559626D03*
D17*
G01*
X3949700Y7445477D03*
D18*
G01*
X3949700Y7294829D03*
D17*
G01*
X3987800Y8175727D03*
D18*
G01*
X3987800Y8025079D03*
D19*
G01*
X5689600Y6400774D03*
D20*
G01*
X5839739Y6150787D03*
G01*
X5789701Y6150787D03*
G01*
X5739663Y6150787D03*
G01*
X5689625Y6150787D03*
G01*
X5639587Y6150787D03*
G01*
X5589549Y6150787D03*
G01*
X5539511Y6150787D03*
D21*
G01*
X5439613Y6250660D03*
G01*
X5439613Y6300698D03*
G01*
X5439613Y6350736D03*
G01*
X5439613Y6400774D03*
G01*
X5439613Y6450812D03*
G01*
X5439613Y6500850D03*
G01*
X5439613Y6550888D03*
D20*
G01*
X5539511Y6650786D03*
G01*
X5589549Y6650786D03*
G01*
X5639587Y6650786D03*
G01*
X5689625Y6650786D03*
G01*
X5739663Y6650786D03*
G01*
X5789701Y6650786D03*
G01*
X5839739Y6650786D03*
D21*
G01*
X5939612Y6550888D03*
G01*
X5939612Y6500850D03*
G01*
X5939612Y6450812D03*
G01*
X5939612Y6400774D03*
G01*
X5939612Y6350736D03*
G01*
X5939612Y6300698D03*
G01*
X5939612Y6250660D03*
D22*
G01*
X830681Y6572224D03*
G01*
X957681Y6572224D03*
G01*
X1084681Y6572224D03*
G01*
X1211681Y6572224D03*
G01*
X1338681Y6572224D03*
G01*
X1465681Y6572224D03*
G01*
X1592681Y6572224D03*
G01*
X1719681Y6572224D03*
G01*
X1846681Y6572224D03*
G01*
X1973681Y6572224D03*
G01*
X2100681Y6572224D03*
G01*
X2227681Y6572224D03*
G01*
X2354681Y6572224D03*
G01*
X2481681Y6572224D03*
D23*
G01*
X2623718Y6870700D03*
G01*
X2623718Y6997700D03*
G01*
X2623718Y7124700D03*
G01*
X2623718Y7251700D03*
G01*
X2623718Y7378700D03*
G01*
X2623693Y7505700D03*
G01*
X2623693Y7632700D03*
G01*
X2623693Y7759700D03*
G01*
X2623693Y7886700D03*
G01*
X2623693Y8013700D03*
D22*
G01*
X2481681Y8312175D03*
G01*
X2354681Y8312175D03*
G01*
X2227681Y8312175D03*
G01*
X2100681Y8312175D03*
G01*
X1973681Y8312175D03*
G01*
X1846681Y8312175D03*
G01*
X1719681Y8312175D03*
G01*
X1592681Y8312175D03*
G01*
X1465681Y8312175D03*
G01*
X1338681Y8312175D03*
G01*
X1211681Y8312175D03*
G01*
X1084681Y8312175D03*
G01*
X957681Y8312175D03*
G01*
X830681Y8312175D03*
D24*
G01*
X1584985Y7340498D03*
D25*
G01*
X6969302Y6408293D03*
G01*
X7229297Y6408293D03*
G01*
X7164298Y6408293D03*
G01*
X7099300Y6408293D03*
G01*
X7034301Y6408293D03*
D26*
G01*
X7429296Y6392290D03*
G01*
X6769303Y6392290D03*
D16*
G01*
X6260224Y8534400D03*
G01*
X6109575Y8534400D03*
G01*
X6260224Y8191500D03*
G01*
X6109575Y8191500D03*
G01*
X6260224Y7848600D03*
G01*
X6109575Y7848600D03*
D27*
G01*
X8648700Y8405799D03*
D28*
G01*
X8648700Y8205800D03*
D29*
G01*
X1866900Y8915400D03*
D30*
G01*
X2120900Y8915400D03*
G01*
X2374900Y8915400D03*
G01*
X2628900Y8915400D03*
G01*
X2882900Y8915400D03*
G01*
X3136900Y8915400D03*
G01*
X3390900Y8915400D03*
G01*
X3644900Y8915400D03*
G01*
X3898900Y8915400D03*
G01*
X4152900Y8915400D03*
G01*
X4406900Y8915400D03*
G01*
X4660900Y8915400D03*
G01*
X4914900Y8915400D03*
G01*
X5168900Y8915400D03*
G01*
X5422900Y8915400D03*
G01*
X5676900Y8915400D03*
D29*
G01*
X1079500Y8915400D03*
D30*
G01*
X1333500Y8915400D03*
G01*
X1587500Y8915400D03*
D29*
G01*
X7010400Y8959850D03*
G01*
X7010400Y8543925D03*
G01*
X7010400Y8128000D03*
G01*
X7645400Y8959850D03*
G01*
X7645400Y8543925D03*
G01*
X7645400Y8128000D03*
D31*
G01*
X8610600Y7416800D03*
G01*
X8610600Y6908800D03*
D32*
G01*
X7419314Y6139306D03*
G01*
X6779310Y6139306D03*
D33*
G01*
X1526387Y6839940D03*
G01*
X1612468Y6790258D03*
G01*
X6109563Y8099425D03*
G01*
X1864918Y6747890D03*
G01*
X5076139Y8511362D03*
G01*
X1768932Y6402755D03*
G01*
X2124760Y6739102D03*
G01*
X3162528Y6401028D03*
G01*
X1803222Y6816242D03*
G01*
X2646324Y6700723D03*
G01*
X5674283Y6058611D03*
G01*
X4487036Y7397165D03*
G01*
X2321839Y7970367D03*
G01*
X3572459Y7948142D03*
G01*
X4763414Y7915681D03*
G01*
X4391228Y6566077D03*
G01*
X3217240Y8665794D03*
G01*
X2725547Y6715836D03*
G01*
X4672812Y7189749D03*
G01*
X5290565Y5916015D03*
G01*
X2190699Y9022613D03*
G01*
X1759102Y8598458D03*
G01*
X6802805Y7378928D03*
G01*
X5915964Y7241667D03*
G01*
X2041880Y8479154D03*
G01*
X5315102Y7426680D03*
G01*
X5914491Y6612915D03*
G01*
X2575483Y8460257D03*
G01*
X2092197Y8764219D03*
G01*
X1807463Y8479485D03*
G01*
X2390927Y8143747D03*
G01*
X4796205Y7141718D03*
G01*
X5416677Y6076518D03*
G01*
X5293106Y5996330D03*
G01*
X4770577Y7017410D03*
G01*
X1703730Y6780301D03*
M02*
