G04 Layer: TopSolderMaskLayer*
G04 EasyEDA v6.5.51, 2025-11-13 11:15:01*
G04 eeee07b8e3394328a7c479296e6499dd,d08b7503fb3042b1851704d71a85d887,10*
G04 Gerber Generator version 0.2*
G04 Scale: 100 percent, Rotated: No, Reflected: No *
G04 Dimensions in millimeters *
G04 leading zeros omitted , absolute positions ,4 integer and 5 decimal *
%FSLAX45Y45*%
%MOMM*%

%AMMACRO1*4,1,8,-0.4211,-0.5008,-0.4508,-0.471,-0.4508,0.4711,-0.4211,0.5008,0.421,0.5008,0.4508,0.4711,0.4508,-0.471,0.421,-0.5008,-0.4211,-0.5008,0*%
%AMMACRO2*4,1,8,-0.6211,-0.6508,-0.6508,-0.621,-0.6508,0.6211,-0.6211,0.6508,0.621,0.6508,0.6508,0.6211,0.6508,-0.621,0.621,-0.6508,-0.6211,-0.6508,0*%
%AMMACRO3*4,1,8,-0.8085,-0.8382,-0.8382,-0.8084,-0.8382,0.8085,-0.8085,0.8382,0.8084,0.8382,0.8382,0.8085,0.8382,-0.8084,0.8084,-0.8382,-0.8085,-0.8382,0*%
%AMMACRO4*4,1,8,-0.5211,-0.5008,-0.5508,-0.471,-0.5508,0.471,-0.5211,0.5008,0.521,0.5008,0.5508,0.471,0.5508,-0.471,0.521,-0.5008,-0.5211,-0.5008,0*%
%AMMACRO5*4,1,8,-0.8086,-0.3868,-0.8383,-0.357,-0.8383,0.357,-0.8086,0.3868,0.8085,0.3868,0.8383,0.357,0.8383,-0.357,0.8085,-0.3868,-0.8086,-0.3868,0*%
%AMMACRO6*4,1,8,-0.646,-0.4008,-0.6758,-0.371,-0.6758,0.3711,-0.646,0.4008,0.646,0.4008,0.6758,0.3711,0.6758,-0.371,0.646,-0.4008,-0.646,-0.4008,0*%
%AMMACRO7*4,1,8,-0.4243,-0.4828,-0.454,-0.453,-0.454,0.4531,-0.4243,0.4828,0.4243,0.4828,0.454,0.4531,0.454,-0.453,0.4243,-0.4828,-0.4243,-0.4828,0*%
%AMMACRO8*4,1,8,-0.4531,-0.454,-0.4828,-0.4243,-0.4828,0.4243,-0.4531,0.454,0.453,0.454,0.4828,0.4243,0.4828,-0.4243,0.453,-0.454,-0.4531,-0.454,0*%
%AMMACRO9*4,1,8,-1.7711,-1.8008,-1.8008,-1.771,-1.8008,1.7711,-1.7711,1.8008,1.771,1.8008,1.8008,1.7711,1.8008,-1.771,1.771,-1.8008,-1.7711,-1.8008,0*%
%AMMACRO10*4,1,8,-0.471,-1.2508,-0.5008,-1.221,-0.5008,1.2211,-0.471,1.2508,0.471,1.2508,0.5008,1.2211,0.5008,-1.221,0.471,-1.2508,-0.471,-1.2508,0*%
%AMMACRO11*4,1,8,-1.2211,-0.5008,-1.2508,-0.471,-1.2508,0.4711,-1.2211,0.5008,1.221,0.5008,1.2508,0.4711,1.2508,-0.471,1.221,-0.5008,-1.2211,-0.5008,0*%
%AMMACRO12*4,1,8,-2.5211,-2.5508,-2.5508,-2.521,-2.5508,2.5211,-2.5211,2.5508,2.521,2.5508,2.5508,2.5211,2.5508,-2.521,2.521,-2.5508,-2.5211,-2.5508,0*%
%AMMACRO13*4,1,8,-0.2207,-0.7,-0.25,-0.6707,-0.25,0.6707,-0.2207,0.7,0.2207,0.7,0.25,0.6707,0.25,-0.6707,0.2207,-0.7,-0.2207,-0.7,0*%
%AMMACRO14*4,1,8,-0.8207,-0.65,-0.85,-0.6207,-0.85,0.6207,-0.8207,0.65,0.8207,0.65,0.85,0.6207,0.85,-0.6207,0.8207,-0.65,-0.8207,-0.65,0*%
%ADD10MACRO1*%
%ADD11MACRO2*%
%ADD12C,1.3016*%
%ADD13MACRO3*%
%ADD14C,1.6764*%
%ADD15C,0.0114*%
%ADD16MACRO4*%
%ADD17MACRO5*%
%ADD18MACRO6*%
%ADD19MACRO7*%
%ADD20MACRO8*%
%ADD21MACRO9*%
%ADD22O,0.38161X1.001598*%
%ADD23O,1.001598X0.38161*%
%ADD24MACRO10*%
%ADD25MACRO11*%
%ADD26MACRO12*%
%ADD27C,2.3000*%
%ADD28MACRO13*%
%ADD29MACRO14*%
%ADD30O,1.200023X1.900022*%

%LPD*%
D10*
G01*
X7334399Y7048500D03*
G01*
X7194400Y7048500D03*
G01*
X7334399Y7327900D03*
G01*
X7194400Y7327900D03*
G01*
X5315099Y7073900D03*
G01*
X5175100Y7073900D03*
G01*
X5315099Y7962900D03*
G01*
X5175100Y7962900D03*
G01*
X5315099Y7518400D03*
G01*
X5175100Y7518400D03*
G01*
X5315099Y8407400D03*
G01*
X5175100Y8407400D03*
D11*
G01*
X8648700Y8405799D03*
D12*
G01*
X8648700Y8205800D03*
D13*
G01*
X1866900Y8915400D03*
D14*
G01*
X2120900Y8915400D03*
G01*
X2374900Y8915400D03*
G01*
X2628900Y8915400D03*
G01*
X2882900Y8915400D03*
G01*
X3136900Y8915400D03*
G01*
X3390900Y8915400D03*
G01*
X3644900Y8915400D03*
G01*
X3898900Y8915400D03*
G01*
X4152900Y8915400D03*
G01*
X4406900Y8915400D03*
G01*
X4660900Y8915400D03*
G01*
X4914900Y8915400D03*
G01*
X5168900Y8915400D03*
G01*
X5422900Y8915400D03*
G01*
X5676900Y8915400D03*
D13*
G01*
X1079500Y8915400D03*
D14*
G01*
X1333500Y8915400D03*
G01*
X1587500Y8915400D03*
D13*
G01*
X7010400Y8959850D03*
G01*
X7010400Y8543925D03*
G01*
X7010400Y8128000D03*
G01*
X7645400Y8959850D03*
G01*
X7645400Y8543925D03*
G01*
X7645400Y8128000D03*
D16*
G01*
X3492500Y6709437D03*
G01*
X3492500Y6539438D03*
G01*
X3479800Y7444640D03*
G01*
X3479800Y7274641D03*
G01*
X3467100Y8174890D03*
G01*
X3467100Y8004891D03*
D17*
G01*
X6599930Y7050913D03*
G01*
X6599930Y7350912D03*
G36*
X6235979Y7100879D02*
G01*
X6235860Y7100882D01*
X6231407Y7100989D01*
X6231176Y7100999D01*
X6226733Y7101311D01*
X6226500Y7101331D01*
X6222075Y7101852D01*
X6221844Y7101885D01*
X6217450Y7102612D01*
X6217216Y7102657D01*
X6212860Y7103592D01*
X6212634Y7103645D01*
X6208328Y7104781D01*
X6208102Y7104847D01*
X6203853Y7106183D01*
X6203632Y7106259D01*
X6199451Y7107793D01*
X6199230Y7107880D01*
X6195126Y7109609D01*
X6194915Y7109703D01*
X6190894Y7111621D01*
X6190683Y7111728D01*
X6186759Y7113833D01*
X6186556Y7113950D01*
X6182733Y7116239D01*
X6182535Y7116363D01*
X6178824Y7118827D01*
X6178633Y7118959D01*
X6175042Y7121593D01*
X6174854Y7121738D01*
X6171392Y7124537D01*
X6171211Y7124689D01*
X6167881Y7127651D01*
X6167711Y7127811D01*
X6164526Y7130922D01*
X6164364Y7131088D01*
X6161326Y7134346D01*
X6161168Y7134522D01*
X6158288Y7137918D01*
X6158141Y7138101D01*
X6155423Y7141629D01*
X6155286Y7141819D01*
X6152735Y7145472D01*
X6152603Y7145667D01*
X6150229Y7149434D01*
X6150109Y7149635D01*
X6147912Y7153511D01*
X6147803Y7153716D01*
X6145789Y7157689D01*
X6145687Y7157902D01*
X6143863Y7161966D01*
X6143772Y7162180D01*
X6142139Y7166322D01*
X6142057Y7166546D01*
X6140622Y7170762D01*
X6140551Y7170983D01*
X6139314Y7175263D01*
X6139256Y7175492D01*
X6138222Y7179825D01*
X6138174Y7180054D01*
X6137343Y7184428D01*
X6137302Y7184659D01*
X6136678Y7189071D01*
X6136652Y7189304D01*
X6136236Y7193739D01*
X6136218Y7193973D01*
X6136010Y7198420D01*
X6136004Y7198654D01*
X6136004Y7203109D01*
X6136010Y7203343D01*
X6136218Y7207791D01*
X6136236Y7208024D01*
X6136652Y7212459D01*
X6136678Y7212693D01*
X6137302Y7217105D01*
X6137343Y7217336D01*
X6138174Y7221710D01*
X6138222Y7221938D01*
X6139256Y7226272D01*
X6139314Y7226500D01*
X6140551Y7230780D01*
X6140622Y7231001D01*
X6142057Y7235217D01*
X6142139Y7235441D01*
X6143772Y7239584D01*
X6143863Y7239797D01*
X6145687Y7243861D01*
X6145789Y7244074D01*
X6147803Y7248047D01*
X6147912Y7248253D01*
X6150109Y7252129D01*
X6150229Y7252329D01*
X6152603Y7256096D01*
X6152735Y7256292D01*
X6155286Y7259944D01*
X6155423Y7260135D01*
X6158141Y7263663D01*
X6158288Y7263846D01*
X6161168Y7267242D01*
X6161326Y7267417D01*
X6164364Y7270676D01*
X6164526Y7270841D01*
X6167711Y7273952D01*
X6167881Y7274112D01*
X6171211Y7277074D01*
X6171392Y7277227D01*
X6174854Y7280026D01*
X6175042Y7280170D01*
X6178633Y7282804D01*
X6178824Y7282936D01*
X6182535Y7285400D01*
X6182733Y7285525D01*
X6186556Y7287813D01*
X6186759Y7287930D01*
X6190683Y7290036D01*
X6190894Y7290142D01*
X6194915Y7292060D01*
X6195126Y7292154D01*
X6199230Y7293884D01*
X6199451Y7293970D01*
X6203632Y7295504D01*
X6203853Y7295581D01*
X6208102Y7296917D01*
X6208328Y7296983D01*
X6212634Y7298118D01*
X6212860Y7298171D01*
X6217216Y7299106D01*
X6217450Y7299152D01*
X6221844Y7299878D01*
X6222075Y7299911D01*
X6226500Y7300432D01*
X6226733Y7300452D01*
X6231176Y7300765D01*
X6231407Y7300775D01*
X6235860Y7300882D01*
X6235979Y7300884D01*
X6421399Y7300884D01*
X6421518Y7300882D01*
X6425971Y7300775D01*
X6426202Y7300765D01*
X6430645Y7300452D01*
X6430878Y7300432D01*
X6435303Y7299911D01*
X6435534Y7299878D01*
X6439928Y7299152D01*
X6440162Y7299106D01*
X6444518Y7298171D01*
X6444744Y7298118D01*
X6449049Y7296983D01*
X6449275Y7296917D01*
X6453525Y7295581D01*
X6453746Y7295504D01*
X6457927Y7293970D01*
X6458148Y7293884D01*
X6462252Y7292154D01*
X6462463Y7292060D01*
X6466484Y7290142D01*
X6466695Y7290036D01*
X6470619Y7287930D01*
X6470822Y7287813D01*
X6474645Y7285525D01*
X6474843Y7285400D01*
X6478554Y7282936D01*
X6478744Y7282804D01*
X6482336Y7280170D01*
X6482524Y7280026D01*
X6485986Y7277227D01*
X6486166Y7277074D01*
X6489496Y7274112D01*
X6489666Y7273952D01*
X6492852Y7270841D01*
X6493014Y7270676D01*
X6496052Y7267417D01*
X6496210Y7267242D01*
X6499090Y7263846D01*
X6499237Y7263663D01*
X6501955Y7260135D01*
X6502092Y7259944D01*
X6504642Y7256292D01*
X6504774Y7256096D01*
X6507149Y7252329D01*
X6507269Y7252129D01*
X6509466Y7248253D01*
X6509575Y7248047D01*
X6511589Y7244074D01*
X6511693Y7243856D01*
X6511787Y7243632D01*
X6511871Y7243404D01*
X6511942Y7243170D01*
X6512003Y7242934D01*
X6512935Y7238885D01*
X6678686Y7238885D01*
X6679176Y7238862D01*
X6679661Y7238789D01*
X6680139Y7238669D01*
X6680601Y7238504D01*
X6681043Y7238296D01*
X6681464Y7238042D01*
X6681858Y7237750D01*
X6682221Y7237420D01*
X6682552Y7237056D01*
X6682844Y7236663D01*
X6683098Y7236241D01*
X6683306Y7235799D01*
X6683471Y7235337D01*
X6683590Y7234859D01*
X6683664Y7234374D01*
X6683687Y7233884D01*
X6683687Y7167885D01*
X6683664Y7167394D01*
X6683590Y7166909D01*
X6683471Y7166432D01*
X6683306Y7165969D01*
X6683098Y7165527D01*
X6682844Y7165106D01*
X6682552Y7164712D01*
X6682221Y7164349D01*
X6681858Y7164019D01*
X6681464Y7163727D01*
X6681043Y7163473D01*
X6680601Y7163264D01*
X6680139Y7163099D01*
X6679661Y7162980D01*
X6679176Y7162906D01*
X6678686Y7162883D01*
X6512935Y7162883D01*
X6512003Y7158829D01*
X6511942Y7158593D01*
X6511871Y7158362D01*
X6511787Y7158131D01*
X6511693Y7157907D01*
X6511589Y7157689D01*
X6509575Y7153716D01*
X6509466Y7153511D01*
X6507269Y7149635D01*
X6507149Y7149434D01*
X6504774Y7145667D01*
X6504642Y7145472D01*
X6502092Y7141819D01*
X6501955Y7141629D01*
X6499237Y7138101D01*
X6499090Y7137918D01*
X6496210Y7134522D01*
X6496052Y7134346D01*
X6493014Y7131088D01*
X6492852Y7130922D01*
X6489666Y7127811D01*
X6489496Y7127651D01*
X6486166Y7124689D01*
X6485986Y7124537D01*
X6482524Y7121738D01*
X6482336Y7121593D01*
X6478744Y7118959D01*
X6478554Y7118827D01*
X6474843Y7116363D01*
X6474645Y7116239D01*
X6470822Y7113950D01*
X6470619Y7113833D01*
X6466695Y7111728D01*
X6466484Y7111621D01*
X6462463Y7109703D01*
X6462252Y7109609D01*
X6458148Y7107880D01*
X6457927Y7107793D01*
X6453746Y7106259D01*
X6453525Y7106183D01*
X6449275Y7104847D01*
X6449049Y7104781D01*
X6444744Y7103645D01*
X6444518Y7103592D01*
X6440162Y7102657D01*
X6439928Y7102612D01*
X6435534Y7101885D01*
X6435303Y7101852D01*
X6430878Y7101331D01*
X6430645Y7101311D01*
X6426202Y7100999D01*
X6425971Y7100989D01*
X6421518Y7100882D01*
X6421399Y7100879D01*
G37*
D18*
G01*
X4660005Y7855203D03*
G01*
X4660005Y8045194D03*
G01*
X4460006Y7950198D03*
G01*
X4660005Y7080503D03*
G01*
X4660005Y7270494D03*
G01*
X4460006Y7175498D03*
D19*
G01*
X4635331Y6591300D03*
G01*
X4484681Y6591300D03*
D20*
G01*
X3962400Y6710272D03*
G01*
X3962400Y6559622D03*
G01*
X3949700Y7445477D03*
G01*
X3949700Y7294827D03*
G01*
X3987800Y8175727D03*
G01*
X3987800Y8025077D03*
D21*
G01*
X5689605Y6400779D03*
D22*
G01*
X5839739Y6150787D03*
G01*
X5789701Y6150787D03*
G01*
X5739663Y6150787D03*
G01*
X5689625Y6150787D03*
G01*
X5639587Y6150787D03*
G01*
X5589549Y6150787D03*
G01*
X5539511Y6150787D03*
D23*
G01*
X5439613Y6250660D03*
G01*
X5439613Y6300698D03*
G01*
X5439613Y6350736D03*
G01*
X5439613Y6400774D03*
G01*
X5439613Y6450812D03*
G01*
X5439613Y6500850D03*
G01*
X5439613Y6550888D03*
D22*
G01*
X5539511Y6650786D03*
G01*
X5589549Y6650786D03*
G01*
X5639587Y6650786D03*
G01*
X5689625Y6650786D03*
G01*
X5739663Y6650786D03*
G01*
X5789701Y6650786D03*
G01*
X5839739Y6650786D03*
D23*
G01*
X5939612Y6550888D03*
G01*
X5939612Y6500850D03*
G01*
X5939612Y6450812D03*
G01*
X5939612Y6400774D03*
G01*
X5939612Y6350736D03*
G01*
X5939612Y6300698D03*
G01*
X5939612Y6250660D03*
D24*
G01*
X830689Y6572214D03*
G01*
X957689Y6572214D03*
G01*
X1084689Y6572214D03*
G01*
X1211689Y6572214D03*
G01*
X1338689Y6572214D03*
G01*
X1465689Y6572214D03*
G01*
X1592689Y6572214D03*
G01*
X1719689Y6572214D03*
G01*
X1846689Y6572214D03*
G01*
X1973689Y6572214D03*
G01*
X2100689Y6572214D03*
G01*
X2227689Y6572214D03*
G01*
X2354689Y6572214D03*
G01*
X2481689Y6572214D03*
D25*
G01*
X2623710Y6870701D03*
G01*
X2623710Y6997701D03*
G01*
X2623710Y7124701D03*
G01*
X2623710Y7251701D03*
G01*
X2623710Y7378701D03*
G01*
X2623685Y7505701D03*
G01*
X2623685Y7632701D03*
G01*
X2623685Y7759701D03*
G01*
X2623685Y7886701D03*
G01*
X2623685Y8013701D03*
D24*
G01*
X2481689Y8312185D03*
G01*
X2354689Y8312185D03*
G01*
X2227689Y8312185D03*
G01*
X2100689Y8312185D03*
G01*
X1973689Y8312185D03*
G01*
X1846689Y8312185D03*
G01*
X1719689Y8312185D03*
G01*
X1592689Y8312185D03*
G01*
X1465689Y8312185D03*
G01*
X1338689Y8312185D03*
G01*
X1211689Y8312185D03*
G01*
X1084689Y8312185D03*
G01*
X957689Y8312185D03*
G01*
X830689Y8312185D03*
D26*
G01*
X1584990Y7340499D03*
D27*
G01*
X8610600Y7416800D03*
G01*
X8610600Y6908800D03*
D28*
G01*
X6969302Y6408295D03*
G01*
X7229302Y6408295D03*
G01*
X7164301Y6408295D03*
G01*
X7099300Y6408295D03*
G01*
X7034301Y6408295D03*
D29*
G01*
X7429301Y6392296D03*
G01*
X6769303Y6392290D03*
D30*
G01*
X7419314Y6139306D03*
G01*
X6779310Y6139306D03*
D19*
G01*
X6260224Y8534400D03*
G01*
X6109575Y8534400D03*
G01*
X6260224Y8191500D03*
G01*
X6109575Y8191500D03*
G01*
X6260224Y7848600D03*
G01*
X6109575Y7848600D03*
M02*
