G04 Layer: BottomLayer*
G04 EasyEDA v6.5.51, 2025-11-13 11:15:01*
G04 eeee07b8e3394328a7c479296e6499dd,d08b7503fb3042b1851704d71a85d887,10*
G04 Gerber Generator version 0.2*
G04 Scale: 100 percent, Rotated: No, Reflected: No *
G04 Dimensions in millimeters *
G04 leading zeros omitted , absolute positions ,4 integer and 5 decimal *
%FSLAX45Y45*%
%MOMM*%

%AMMACRO1*21,1,$1,$2,0,0,$3*%
%ADD10C,0.2540*%
%ADD11MACRO1,1.2X1.2X-90.0000*%
%ADD12C,1.2000*%
%ADD13R,1.5748X1.5748*%
%ADD14C,1.5748*%
%ADD15C,2.2000*%
%ADD16O,1.099998X1.799996*%
%ADD17C,0.6100*%
%ADD18C,0.0180*%

%LPD*%
D10*
X1866900Y8915400D02*
G01*
X1866900Y8808745D01*
X1866900Y8808745D02*
G01*
X1526387Y8468233D01*
X1526387Y6839940D01*
X1612468Y6790258D02*
G01*
X1612468Y8368969D01*
X2120900Y8877401D01*
X2120900Y8915400D01*
X2120900Y8915400D02*
G01*
X2170480Y8915400D01*
X2337993Y9082912D01*
X7098106Y9082912D01*
X7131151Y9049867D01*
X7131151Y8771331D01*
X7010400Y8650579D01*
X7010400Y8543925D02*
G01*
X7010400Y8650579D01*
X7010400Y8543925D02*
G01*
X6554063Y8543925D01*
X6109563Y8099425D01*
X4914900Y8915400D02*
G01*
X2833725Y6834225D01*
X1951253Y6834225D01*
X1864918Y6747890D01*
X1768932Y6402755D02*
G01*
X2967532Y6402755D01*
X5076139Y8511362D01*
X5422900Y8915400D02*
G01*
X5397372Y8915400D01*
X3256381Y6774408D01*
X2160066Y6774408D01*
X2124760Y6739102D01*
X3162528Y6401028D02*
G01*
X5676900Y8915400D01*
X1079500Y8915400D02*
G01*
X1079500Y7203998D01*
X1580311Y6703187D01*
X1721637Y6703187D01*
X1803222Y6784771D01*
X1803222Y6816242D01*
X1587500Y8915400D02*
G01*
X1478940Y9023959D01*
X980135Y9023959D01*
X972693Y9016517D01*
X972693Y7253147D01*
X1569465Y6656374D01*
X2601975Y6656374D01*
X2646324Y6700723D01*
X4487036Y7397165D02*
G01*
X4632426Y7397165D01*
X5674258Y6355334D01*
X5674258Y6058611D01*
X5674283Y6058611D01*
X3572459Y7948142D02*
G01*
X2344064Y7948142D01*
X2321839Y7970367D01*
X4763414Y7915681D02*
G01*
X4391228Y7543495D01*
X4391228Y6566077D01*
X4660900Y8915400D02*
G01*
X4411294Y8665794D01*
X3217240Y8665794D01*
X1333500Y8915400D02*
G01*
X1447774Y8801125D01*
X1630298Y8801125D01*
X1702892Y8873718D01*
X1702892Y8969629D01*
X1601673Y9070847D01*
X951026Y9070847D01*
X917295Y9037116D01*
X917295Y7250887D01*
X1552600Y6615582D01*
X2660141Y6615582D01*
X2725547Y6680987D01*
X2725547Y6715836D01*
X4672812Y7189749D02*
G01*
X4672812Y6533769D01*
X5290565Y5916015D01*
X1759102Y8598458D02*
G01*
X1973706Y8813063D01*
X1973706Y8941180D01*
X2055139Y9022613D01*
X2190699Y9022613D01*
X8648700Y8361857D02*
G01*
X7665770Y7378928D01*
X6802805Y7378928D01*
X8648700Y8361857D02*
G01*
X8648700Y8317890D01*
X8648700Y8405799D02*
G01*
X8648700Y8361857D01*
X8610600Y7416800D02*
G01*
X8746616Y7552817D01*
X8746616Y8241944D01*
X8670670Y8317890D01*
X8648700Y8317890D01*
X6779310Y6139306D02*
G01*
X6779310Y6378320D01*
X5915964Y7241667D01*
X7419314Y6139306D02*
G01*
X6779310Y6139306D01*
X7645400Y8543925D02*
G01*
X7645400Y8959850D01*
X7645400Y8128000D02*
G01*
X7645400Y8543925D01*
X8458860Y6908800D02*
G01*
X8610600Y6908800D01*
X7419314Y6139306D02*
G01*
X8188807Y6908800D01*
X8458860Y6908800D01*
X8458860Y6908800D02*
G01*
X8458860Y8015960D01*
X8648700Y8205800D01*
X2628900Y8915400D02*
G01*
X2192654Y8479154D01*
X2041880Y8479154D01*
X5914491Y6612915D02*
G01*
X5914491Y6827291D01*
X5315102Y7426680D01*
X3644900Y8915400D02*
G01*
X3504184Y8774684D01*
X2889910Y8774684D01*
X2575483Y8460257D01*
X2092197Y8764219D02*
G01*
X1807463Y8479485D01*
X2390927Y8143747D02*
G01*
X2975914Y8728735D01*
X4220235Y8728735D01*
X4406900Y8915400D01*
X4796205Y7141718D02*
G01*
X5416677Y6521246D01*
X5416677Y6076518D01*
X4770577Y7017410D02*
G01*
X4770577Y6518859D01*
X5293106Y5996330D01*
X2374900Y8915400D02*
G01*
X1703730Y8244230D01*
X1703730Y6780301D01*
X6903745Y8959850D02*
G01*
X6831736Y9031859D01*
X2491359Y9031859D01*
X2374900Y8915400D01*
X7010400Y8959850D02*
G01*
X6903745Y8959850D01*
D11*
G01*
X8648700Y8405799D03*
D12*
G01*
X8648700Y8205800D03*
D13*
G01*
X1866900Y8915400D03*
D14*
G01*
X2120900Y8915400D03*
G01*
X2374900Y8915400D03*
G01*
X2628900Y8915400D03*
G01*
X2882900Y8915400D03*
G01*
X3136900Y8915400D03*
G01*
X3390900Y8915400D03*
G01*
X3644900Y8915400D03*
G01*
X3898900Y8915400D03*
G01*
X4152900Y8915400D03*
G01*
X4406900Y8915400D03*
G01*
X4660900Y8915400D03*
G01*
X4914900Y8915400D03*
G01*
X5168900Y8915400D03*
G01*
X5422900Y8915400D03*
G01*
X5676900Y8915400D03*
D13*
G01*
X1079500Y8915400D03*
D14*
G01*
X1333500Y8915400D03*
G01*
X1587500Y8915400D03*
D13*
G01*
X7010400Y8959850D03*
G01*
X7010400Y8543925D03*
G01*
X7010400Y8128000D03*
G01*
X7645400Y8959850D03*
G01*
X7645400Y8543925D03*
G01*
X7645400Y8128000D03*
D15*
G01*
X8610600Y7416800D03*
G01*
X8610600Y6908800D03*
D16*
G01*
X7419314Y6139306D03*
G01*
X6779310Y6139306D03*
D17*
G01*
X1526387Y6839940D03*
G01*
X1612468Y6790258D03*
G01*
X6109563Y8099425D03*
G01*
X1864918Y6747890D03*
G01*
X5076139Y8511362D03*
G01*
X1768932Y6402755D03*
G01*
X2124760Y6739102D03*
G01*
X3162528Y6401028D03*
G01*
X1803222Y6816242D03*
G01*
X2646324Y6700723D03*
G01*
X5674283Y6058611D03*
G01*
X4487036Y7397165D03*
G01*
X2321839Y7970367D03*
G01*
X3572459Y7948142D03*
G01*
X4763414Y7915681D03*
G01*
X4391228Y6566077D03*
G01*
X3217240Y8665794D03*
G01*
X2725547Y6715836D03*
G01*
X4672812Y7189749D03*
G01*
X5290565Y5916015D03*
G01*
X2190699Y9022613D03*
G01*
X1759102Y8598458D03*
G01*
X6802805Y7378928D03*
G01*
X5915964Y7241667D03*
G01*
X2041880Y8479154D03*
G01*
X5315102Y7426680D03*
G01*
X5914491Y6612915D03*
G01*
X2575483Y8460257D03*
G01*
X2092197Y8764219D03*
G01*
X1807463Y8479485D03*
G01*
X2390927Y8143747D03*
G01*
X4796205Y7141718D03*
G01*
X5416677Y6076518D03*
G01*
X5293106Y5996330D03*
G01*
X4770577Y7017410D03*
G01*
X1703730Y6780301D03*
M02*
