G04 Layer: TopPasteMaskLayer*
G04 EasyEDA v6.5.51, 2025-11-13 11:15:01*
G04 eeee07b8e3394328a7c479296e6499dd,d08b7503fb3042b1851704d71a85d887,10*
G04 Gerber Generator version 0.2*
G04 Scale: 100 percent, Rotated: No, Reflected: No *
G04 Dimensions in millimeters *
G04 leading zeros omitted , absolute positions ,4 integer and 5 decimal *
%FSLAX45Y45*%
%MOMM*%

%AMMACRO1*21,1,$1,$2,0,0,$3*%
%ADD10R,0.8000X0.9000*%
%ADD11R,1.0000X0.8999*%
%ADD12MACRO1,0.672X1.575X90.0000*%
%ADD13R,1.2500X0.7000*%
%ADD14R,0.9000X2.4000*%
%ADD15R,2.4000X0.9000*%
%ADD16R,5.0000X5.0000*%
%ADD17R,0.0185X5.0000*%

%LPD*%
G36*
X4599482Y6636308D02*
G01*
X4594504Y6631279D01*
X4594504Y6608521D01*
X4631486Y6608521D01*
X4631486Y6575501D01*
X4594504Y6575501D01*
X4594504Y6551320D01*
X4599482Y6546291D01*
X4679492Y6546291D01*
X4684522Y6551320D01*
X4684522Y6631279D01*
X4679492Y6636308D01*
G37*
G36*
X4440529Y6636308D02*
G01*
X4435500Y6631279D01*
X4435500Y6551320D01*
X4440529Y6546291D01*
X4520488Y6546291D01*
X4525518Y6551320D01*
X4525518Y6574078D01*
X4488484Y6574078D01*
X4488484Y6607098D01*
X4525518Y6607098D01*
X4525518Y6631279D01*
X4520488Y6636308D01*
G37*
G36*
X3922420Y6759448D02*
G01*
X3917391Y6754469D01*
X3917391Y6674459D01*
X3922420Y6669430D01*
X3945178Y6669430D01*
X3945178Y6706463D01*
X3978198Y6706463D01*
X3978198Y6669430D01*
X4002379Y6669430D01*
X4007408Y6674459D01*
X4007408Y6754469D01*
X4002379Y6759448D01*
G37*
G36*
X3922420Y6600444D02*
G01*
X3917391Y6595465D01*
X3917391Y6515455D01*
X3922420Y6510426D01*
X4002379Y6510426D01*
X4007408Y6515455D01*
X4007408Y6595465D01*
X4002379Y6600444D01*
X3979621Y6600444D01*
X3979621Y6563461D01*
X3946601Y6563461D01*
X3946601Y6600444D01*
G37*
G36*
X3909720Y7494676D02*
G01*
X3904691Y7489647D01*
X3904691Y7409637D01*
X3909720Y7404658D01*
X3932478Y7404658D01*
X3932478Y7441641D01*
X3965498Y7441641D01*
X3965498Y7404658D01*
X3989679Y7404658D01*
X3994708Y7409637D01*
X3994708Y7489647D01*
X3989679Y7494676D01*
G37*
G36*
X3909720Y7335672D02*
G01*
X3904691Y7330643D01*
X3904691Y7250633D01*
X3909720Y7245654D01*
X3989679Y7245654D01*
X3994708Y7250633D01*
X3994708Y7330643D01*
X3989679Y7335672D01*
X3966921Y7335672D01*
X3966921Y7298639D01*
X3933901Y7298639D01*
X3933901Y7335672D01*
G37*
G36*
X3947820Y8224926D02*
G01*
X3942791Y8219897D01*
X3942791Y8139887D01*
X3947820Y8134908D01*
X3970578Y8134908D01*
X3970578Y8171891D01*
X4003598Y8171891D01*
X4003598Y8134908D01*
X4027779Y8134908D01*
X4032808Y8139887D01*
X4032808Y8219897D01*
X4027779Y8224926D01*
G37*
G36*
X3947820Y8065922D02*
G01*
X3942791Y8060893D01*
X3942791Y7980883D01*
X3947820Y7975904D01*
X4027779Y7975904D01*
X4032808Y7980883D01*
X4032808Y8060893D01*
X4027779Y8065922D01*
X4005021Y8065922D01*
X4005021Y8028889D01*
X3972001Y8028889D01*
X3972001Y8065922D01*
G37*
G36*
X5407812Y6414770D02*
G01*
X5404815Y6414262D01*
X5401919Y6413093D01*
X5399430Y6411366D01*
X5397804Y6409690D01*
X5395772Y6406388D01*
X5394858Y6403492D01*
X5394604Y6401155D01*
X5395010Y6397345D01*
X5396128Y6394450D01*
X5398312Y6391300D01*
X5400598Y6389268D01*
X5404053Y6387541D01*
X5407050Y6386880D01*
X5472125Y6386880D01*
X5475122Y6387541D01*
X5478576Y6389268D01*
X5480913Y6391300D01*
X5483098Y6394450D01*
X5483961Y6396634D01*
X5484469Y6398869D01*
X5484571Y6401968D01*
X5483961Y6404965D01*
X5483098Y6407099D01*
X5481421Y6409690D01*
X5479796Y6411366D01*
X5477916Y6412738D01*
X5474411Y6414262D01*
X5471363Y6414770D01*
G37*
G36*
X5407812Y6314694D02*
G01*
X5404815Y6314186D01*
X5401919Y6313017D01*
X5399430Y6311290D01*
X5397804Y6309614D01*
X5395772Y6306312D01*
X5394858Y6303416D01*
X5394604Y6301079D01*
X5395010Y6297269D01*
X5396128Y6294374D01*
X5398312Y6291224D01*
X5400598Y6289192D01*
X5404053Y6287465D01*
X5407050Y6286804D01*
X5472125Y6286804D01*
X5475122Y6287465D01*
X5478576Y6289192D01*
X5480913Y6291224D01*
X5483098Y6294374D01*
X5483961Y6296507D01*
X5484469Y6298793D01*
X5484571Y6301892D01*
X5483961Y6304889D01*
X5483098Y6307023D01*
X5481421Y6309614D01*
X5479796Y6311290D01*
X5477916Y6312662D01*
X5474411Y6314186D01*
X5471363Y6314694D01*
G37*
G36*
X5407812Y6514846D02*
G01*
X5404815Y6514338D01*
X5401919Y6513169D01*
X5399430Y6511442D01*
X5397804Y6509766D01*
X5396484Y6507886D01*
X5395468Y6505752D01*
X5395010Y6504279D01*
X5394604Y6500469D01*
X5394858Y6498183D01*
X5395772Y6495237D01*
X5397804Y6491986D01*
X5399989Y6489801D01*
X5401919Y6488531D01*
X5404815Y6487414D01*
X5407812Y6486906D01*
X5470601Y6486855D01*
X5472887Y6487058D01*
X5475884Y6487871D01*
X5479186Y6489801D01*
X5481421Y6491986D01*
X5482742Y6493865D01*
X5484164Y6497421D01*
X5484571Y6499707D01*
X5484469Y6502806D01*
X5483707Y6505752D01*
X5482742Y6507886D01*
X5481421Y6509766D01*
X5479796Y6511442D01*
X5477916Y6512814D01*
X5474411Y6514338D01*
X5471363Y6514846D01*
G37*
G36*
X5407812Y6364732D02*
G01*
X5404815Y6364224D01*
X5401919Y6363055D01*
X5399430Y6361328D01*
X5397804Y6359652D01*
X5396484Y6357772D01*
X5395468Y6355638D01*
X5394756Y6352692D01*
X5394655Y6349593D01*
X5395010Y6347307D01*
X5396128Y6344412D01*
X5398312Y6341262D01*
X5400598Y6339230D01*
X5402630Y6338062D01*
X5405526Y6337096D01*
X5408625Y6336741D01*
X5472125Y6336842D01*
X5475122Y6337503D01*
X5476595Y6338062D01*
X5479796Y6340195D01*
X5480913Y6341262D01*
X5483098Y6344412D01*
X5483961Y6346545D01*
X5484469Y6348831D01*
X5484571Y6351879D01*
X5483961Y6354927D01*
X5482336Y6358432D01*
X5480913Y6360210D01*
X5478576Y6362242D01*
X5476595Y6363411D01*
X5473649Y6364427D01*
X5472125Y6364681D01*
G37*
G36*
X5407812Y6264656D02*
G01*
X5404815Y6264148D01*
X5401919Y6262979D01*
X5399430Y6261252D01*
X5397804Y6259576D01*
X5396484Y6257696D01*
X5395468Y6255562D01*
X5395010Y6254089D01*
X5394604Y6250279D01*
X5394858Y6247993D01*
X5395772Y6245047D01*
X5397804Y6241796D01*
X5399989Y6239611D01*
X5401919Y6238341D01*
X5404815Y6237224D01*
X5407812Y6236716D01*
X5470601Y6236665D01*
X5472887Y6236868D01*
X5475884Y6237681D01*
X5479186Y6239611D01*
X5481421Y6241796D01*
X5482742Y6243675D01*
X5484164Y6247231D01*
X5484571Y6249517D01*
X5484469Y6252616D01*
X5483707Y6255562D01*
X5482742Y6257696D01*
X5481421Y6259576D01*
X5479796Y6261252D01*
X5477916Y6262624D01*
X5474411Y6264148D01*
X5471363Y6264656D01*
G37*
G36*
X5407812Y6564884D02*
G01*
X5404815Y6564375D01*
X5401919Y6563207D01*
X5399430Y6561480D01*
X5397804Y6559803D01*
X5395772Y6556502D01*
X5394858Y6553606D01*
X5394604Y6550507D01*
X5394858Y6548221D01*
X5395772Y6545275D01*
X5397804Y6542024D01*
X5399989Y6539839D01*
X5401919Y6538569D01*
X5404815Y6537452D01*
X5407812Y6536944D01*
X5470601Y6536893D01*
X5472887Y6537096D01*
X5475884Y6537909D01*
X5479186Y6539839D01*
X5481421Y6542024D01*
X5482742Y6543903D01*
X5484164Y6547459D01*
X5484571Y6549745D01*
X5484469Y6552844D01*
X5483707Y6555790D01*
X5482742Y6557924D01*
X5480913Y6560362D01*
X5478576Y6562394D01*
X5476595Y6563563D01*
X5473649Y6564579D01*
X5472125Y6564833D01*
G37*
G36*
X5407812Y6464808D02*
G01*
X5404815Y6464300D01*
X5401919Y6463131D01*
X5399430Y6461404D01*
X5397804Y6459728D01*
X5396484Y6457848D01*
X5395468Y6455714D01*
X5394756Y6452768D01*
X5394655Y6449669D01*
X5395010Y6447383D01*
X5396128Y6444488D01*
X5398312Y6441338D01*
X5400598Y6439306D01*
X5404053Y6437579D01*
X5407050Y6436918D01*
X5472125Y6436918D01*
X5475122Y6437579D01*
X5478576Y6439306D01*
X5480913Y6441338D01*
X5483098Y6444488D01*
X5483961Y6446621D01*
X5484469Y6448907D01*
X5484571Y6451955D01*
X5483961Y6455003D01*
X5482336Y6458508D01*
X5480913Y6460286D01*
X5478576Y6462318D01*
X5476595Y6463487D01*
X5473649Y6464503D01*
X5472125Y6464757D01*
G37*
G36*
X5539130Y6695795D02*
G01*
X5536082Y6695389D01*
X5534609Y6694931D01*
X5531205Y6693103D01*
X5529478Y6691579D01*
X5528005Y6689801D01*
X5526532Y6687058D01*
X5525820Y6684873D01*
X5525566Y6683349D01*
X5525516Y6619036D01*
X5526024Y6615988D01*
X5527548Y6612483D01*
X5528919Y6610603D01*
X5530596Y6608978D01*
X5532475Y6607657D01*
X5536082Y6606235D01*
X5537555Y6605930D01*
X5540654Y6605828D01*
X5544413Y6606692D01*
X5546496Y6607657D01*
X5549544Y6610045D01*
X5551830Y6613144D01*
X5552948Y6615988D01*
X5553303Y6617512D01*
X5553506Y6619798D01*
X5553405Y6683349D01*
X5552744Y6686346D01*
X5551017Y6689801D01*
X5548985Y6692087D01*
X5545836Y6694271D01*
X5542940Y6695389D01*
G37*
G36*
X5539130Y6195822D02*
G01*
X5536082Y6195364D01*
X5532475Y6193942D01*
X5530596Y6192621D01*
X5528919Y6190996D01*
X5527548Y6189116D01*
X5526024Y6185611D01*
X5525516Y6182563D01*
X5525566Y6118250D01*
X5526278Y6115253D01*
X5527548Y6112459D01*
X5529478Y6110020D01*
X5531205Y6108496D01*
X5534609Y6106668D01*
X5537555Y6105956D01*
X5540654Y6105855D01*
X5542940Y6106210D01*
X5545836Y6107328D01*
X5548985Y6109512D01*
X5551017Y6111849D01*
X5552490Y6114542D01*
X5553303Y6117488D01*
X5553456Y6119012D01*
X5553506Y6181801D01*
X5553303Y6184087D01*
X5552490Y6187084D01*
X5550560Y6190386D01*
X5548376Y6192621D01*
X5546496Y6193942D01*
X5542940Y6195364D01*
X5540654Y6195771D01*
G37*
G36*
X5589168Y6695795D02*
G01*
X5586120Y6695389D01*
X5584647Y6694931D01*
X5581243Y6693103D01*
X5579516Y6691579D01*
X5578043Y6689801D01*
X5576570Y6687058D01*
X5575858Y6684873D01*
X5575604Y6683349D01*
X5575554Y6619036D01*
X5576062Y6615988D01*
X5577586Y6612483D01*
X5578957Y6610603D01*
X5580634Y6608978D01*
X5583224Y6607302D01*
X5585358Y6606438D01*
X5588406Y6605828D01*
X5591454Y6605930D01*
X5593740Y6606438D01*
X5595874Y6607302D01*
X5599023Y6609486D01*
X5601055Y6611823D01*
X5602224Y6613804D01*
X5603189Y6616750D01*
X5603443Y6618274D01*
X5603544Y6681825D01*
X5603341Y6684111D01*
X5602528Y6687058D01*
X5601868Y6688480D01*
X5599582Y6691579D01*
X5597804Y6693103D01*
X5595162Y6694627D01*
X5592216Y6695541D01*
G37*
G36*
X5589168Y6195822D02*
G01*
X5586120Y6195364D01*
X5582513Y6193942D01*
X5580075Y6192113D01*
X5578043Y6189776D01*
X5576874Y6187795D01*
X5575858Y6184849D01*
X5575604Y6183325D01*
X5575554Y6119012D01*
X5576062Y6116015D01*
X5577230Y6113119D01*
X5578957Y6110630D01*
X5580634Y6109004D01*
X5583936Y6106972D01*
X5586831Y6106058D01*
X5589930Y6105804D01*
X5592216Y6106058D01*
X5595162Y6106972D01*
X5597804Y6108496D01*
X5599582Y6110020D01*
X5601462Y6112459D01*
X5602782Y6115253D01*
X5603443Y6118250D01*
X5603443Y6183325D01*
X5602782Y6186322D01*
X5602224Y6187795D01*
X5600090Y6190996D01*
X5599023Y6192113D01*
X5595874Y6194298D01*
X5593740Y6195161D01*
G37*
G36*
X5639206Y6695795D02*
G01*
X5635396Y6695186D01*
X5631942Y6693509D01*
X5628995Y6691020D01*
X5627624Y6689140D01*
X5626100Y6685635D01*
X5625592Y6682587D01*
X5625642Y6618274D01*
X5626354Y6615277D01*
X5626912Y6613804D01*
X5628081Y6611823D01*
X5630113Y6609486D01*
X5632551Y6607657D01*
X5636158Y6606235D01*
X5637631Y6605930D01*
X5640730Y6605828D01*
X5644489Y6606692D01*
X5646572Y6607657D01*
X5649620Y6610045D01*
X5651906Y6613144D01*
X5653024Y6615988D01*
X5653379Y6617512D01*
X5653582Y6619798D01*
X5653481Y6683349D01*
X5652820Y6686346D01*
X5652262Y6687769D01*
X5651093Y6689801D01*
X5649061Y6692087D01*
X5645912Y6694271D01*
X5643016Y6695389D01*
G37*
G36*
X5639206Y6195822D02*
G01*
X5636158Y6195364D01*
X5632551Y6193942D01*
X5630113Y6192113D01*
X5628081Y6189776D01*
X5626912Y6187795D01*
X5625896Y6184849D01*
X5625642Y6183325D01*
X5625592Y6119012D01*
X5626100Y6116015D01*
X5627268Y6113119D01*
X5628995Y6110630D01*
X5630672Y6109004D01*
X5633974Y6106972D01*
X5636869Y6106058D01*
X5639206Y6105804D01*
X5643016Y6106210D01*
X5645912Y6107328D01*
X5649061Y6109512D01*
X5651093Y6111849D01*
X5652566Y6114542D01*
X5653379Y6117488D01*
X5653532Y6119012D01*
X5653582Y6181801D01*
X5653379Y6184087D01*
X5652566Y6187084D01*
X5650636Y6190386D01*
X5648452Y6192621D01*
X5646572Y6193942D01*
X5643016Y6195364D01*
X5640730Y6195771D01*
G37*
G36*
X5689244Y6695795D02*
G01*
X5685434Y6695186D01*
X5681929Y6693509D01*
X5679033Y6691020D01*
X5677662Y6689140D01*
X5676138Y6685635D01*
X5675630Y6682587D01*
X5675680Y6618274D01*
X5676392Y6615277D01*
X5676950Y6613804D01*
X5678119Y6611823D01*
X5680151Y6609486D01*
X5681929Y6608064D01*
X5685434Y6606438D01*
X5688431Y6605828D01*
X5691530Y6605930D01*
X5693765Y6606438D01*
X5695950Y6607302D01*
X5699099Y6609486D01*
X5701131Y6611823D01*
X5702858Y6615277D01*
X5703519Y6618274D01*
X5703620Y6681825D01*
X5703417Y6684111D01*
X5702604Y6687058D01*
X5701944Y6688480D01*
X5699658Y6691579D01*
X5697880Y6693103D01*
X5695238Y6694627D01*
X5692292Y6695541D01*
G37*
G36*
X5689244Y6195822D02*
G01*
X5686196Y6195364D01*
X5682589Y6193942D01*
X5680710Y6192621D01*
X5679033Y6190996D01*
X5677662Y6189116D01*
X5676138Y6185611D01*
X5675630Y6182563D01*
X5675680Y6118250D01*
X5676392Y6115253D01*
X5677662Y6112459D01*
X5679592Y6110020D01*
X5681319Y6108496D01*
X5684723Y6106668D01*
X5686196Y6106210D01*
X5690006Y6105804D01*
X5692292Y6106058D01*
X5695238Y6106972D01*
X5697880Y6108496D01*
X5699658Y6110020D01*
X5701538Y6112459D01*
X5702858Y6115253D01*
X5703519Y6118250D01*
X5703519Y6183325D01*
X5702858Y6186322D01*
X5701131Y6189776D01*
X5699099Y6192113D01*
X5695950Y6194298D01*
X5693765Y6195161D01*
G37*
G36*
X5739282Y6695795D02*
G01*
X5736234Y6695389D01*
X5734761Y6694931D01*
X5731357Y6693103D01*
X5729630Y6691579D01*
X5728157Y6689801D01*
X5726684Y6687058D01*
X5725972Y6684873D01*
X5725718Y6683349D01*
X5725668Y6619036D01*
X5726176Y6615988D01*
X5727700Y6612483D01*
X5729071Y6610603D01*
X5730748Y6608978D01*
X5732627Y6607657D01*
X5736234Y6606235D01*
X5737707Y6605930D01*
X5740806Y6605828D01*
X5744565Y6606692D01*
X5746648Y6607657D01*
X5749696Y6610045D01*
X5751982Y6613144D01*
X5753100Y6615988D01*
X5753455Y6617512D01*
X5753658Y6619798D01*
X5753557Y6683349D01*
X5752896Y6686346D01*
X5752338Y6687769D01*
X5751169Y6689801D01*
X5749137Y6692087D01*
X5745988Y6694271D01*
X5743092Y6695389D01*
G37*
G36*
X5739282Y6195822D02*
G01*
X5736234Y6195364D01*
X5732627Y6193942D01*
X5730748Y6192621D01*
X5729071Y6190996D01*
X5727700Y6189116D01*
X5726176Y6185611D01*
X5725668Y6182563D01*
X5725718Y6118250D01*
X5726430Y6115253D01*
X5727700Y6112459D01*
X5729630Y6110020D01*
X5731357Y6108496D01*
X5734761Y6106668D01*
X5737707Y6105956D01*
X5740806Y6105855D01*
X5743092Y6106210D01*
X5745988Y6107328D01*
X5749137Y6109512D01*
X5751169Y6111849D01*
X5752642Y6114542D01*
X5753455Y6117488D01*
X5753608Y6119012D01*
X5753658Y6181801D01*
X5753455Y6184087D01*
X5752642Y6187084D01*
X5750712Y6190386D01*
X5748528Y6192621D01*
X5746648Y6193942D01*
X5743092Y6195364D01*
X5740806Y6195771D01*
G37*
G36*
X5789320Y6695795D02*
G01*
X5786272Y6695389D01*
X5784799Y6694931D01*
X5781395Y6693103D01*
X5779668Y6691579D01*
X5778195Y6689801D01*
X5776722Y6687058D01*
X5776010Y6684873D01*
X5775756Y6683349D01*
X5775706Y6619036D01*
X5776214Y6615988D01*
X5777738Y6612483D01*
X5779109Y6610603D01*
X5780786Y6608978D01*
X5783376Y6607302D01*
X5785510Y6606438D01*
X5788558Y6605828D01*
X5791606Y6605930D01*
X5793841Y6606438D01*
X5796026Y6607302D01*
X5799175Y6609486D01*
X5801207Y6611823D01*
X5802376Y6613804D01*
X5803341Y6616750D01*
X5803595Y6618274D01*
X5803696Y6681825D01*
X5803493Y6684111D01*
X5802680Y6687058D01*
X5802020Y6688480D01*
X5799734Y6691579D01*
X5797956Y6693103D01*
X5795314Y6694627D01*
X5792368Y6695541D01*
G37*
G36*
X5789320Y6195822D02*
G01*
X5786272Y6195364D01*
X5782665Y6193942D01*
X5780227Y6192113D01*
X5778195Y6189776D01*
X5777026Y6187795D01*
X5776010Y6184849D01*
X5775756Y6183325D01*
X5775706Y6119012D01*
X5776214Y6116015D01*
X5777382Y6113119D01*
X5779109Y6110630D01*
X5780786Y6109004D01*
X5784088Y6106972D01*
X5786983Y6106058D01*
X5790082Y6105804D01*
X5792368Y6106058D01*
X5795314Y6106972D01*
X5797956Y6108496D01*
X5799734Y6110020D01*
X5801614Y6112459D01*
X5802934Y6115253D01*
X5803595Y6118250D01*
X5803595Y6183325D01*
X5802934Y6186322D01*
X5802376Y6187795D01*
X5800242Y6190996D01*
X5799175Y6192113D01*
X5796026Y6194298D01*
X5793841Y6195161D01*
G37*
G36*
X5839358Y6695795D02*
G01*
X5835548Y6695186D01*
X5832094Y6693509D01*
X5829147Y6691020D01*
X5827776Y6689140D01*
X5826252Y6685635D01*
X5825744Y6682587D01*
X5825794Y6618274D01*
X5826506Y6615277D01*
X5827064Y6613804D01*
X5828233Y6611823D01*
X5830265Y6609486D01*
X5832703Y6607657D01*
X5836310Y6606235D01*
X5837783Y6605930D01*
X5840882Y6605828D01*
X5844641Y6606692D01*
X5846724Y6607657D01*
X5849772Y6610045D01*
X5852058Y6613144D01*
X5853176Y6615988D01*
X5853531Y6617512D01*
X5853734Y6619798D01*
X5853633Y6683349D01*
X5852972Y6686346D01*
X5851245Y6689801D01*
X5849213Y6692087D01*
X5846064Y6694271D01*
X5843168Y6695389D01*
G37*
G36*
X5839358Y6195822D02*
G01*
X5836310Y6195364D01*
X5832703Y6193942D01*
X5830265Y6192113D01*
X5828233Y6189776D01*
X5827064Y6187795D01*
X5826048Y6184849D01*
X5825794Y6183325D01*
X5825744Y6119012D01*
X5826252Y6116015D01*
X5827420Y6113119D01*
X5829147Y6110630D01*
X5830824Y6109004D01*
X5834126Y6106972D01*
X5837021Y6106058D01*
X5839358Y6105804D01*
X5843168Y6106210D01*
X5846064Y6107328D01*
X5849213Y6109512D01*
X5851245Y6111849D01*
X5852718Y6114542D01*
X5853531Y6117488D01*
X5853684Y6119012D01*
X5853734Y6181801D01*
X5853531Y6184087D01*
X5852718Y6187084D01*
X5850788Y6190386D01*
X5848604Y6192621D01*
X5846724Y6193942D01*
X5843168Y6195364D01*
X5840882Y6195771D01*
G37*
G36*
X5907836Y6414770D02*
G01*
X5904788Y6414262D01*
X5901283Y6412738D01*
X5899404Y6411366D01*
X5897778Y6409690D01*
X5896102Y6407099D01*
X5895238Y6404965D01*
X5894628Y6401968D01*
X5894730Y6398869D01*
X5895238Y6396634D01*
X5896102Y6394450D01*
X5898286Y6391300D01*
X5900623Y6389268D01*
X5904077Y6387541D01*
X5907074Y6386880D01*
X5970625Y6386779D01*
X5972911Y6386982D01*
X5975858Y6387795D01*
X5977280Y6388455D01*
X5980379Y6390741D01*
X5981903Y6392519D01*
X5983427Y6395161D01*
X5983986Y6396634D01*
X5984494Y6398869D01*
X5984494Y6402730D01*
X5983732Y6405676D01*
X5981903Y6409080D01*
X5980379Y6410807D01*
X5978601Y6412280D01*
X5975858Y6413754D01*
X5972911Y6414617D01*
X5971387Y6414770D01*
G37*
G36*
X5907836Y6514846D02*
G01*
X5904788Y6514338D01*
X5901283Y6512814D01*
X5899404Y6511442D01*
X5897778Y6509766D01*
X5896457Y6507886D01*
X5895035Y6504279D01*
X5894730Y6502806D01*
X5894628Y6499707D01*
X5895492Y6495948D01*
X5896457Y6493865D01*
X5898845Y6490817D01*
X5901944Y6488531D01*
X5904788Y6487414D01*
X5906312Y6487058D01*
X5908598Y6486855D01*
X5972149Y6486956D01*
X5975146Y6487617D01*
X5976569Y6488176D01*
X5978601Y6489344D01*
X5980887Y6491376D01*
X5983071Y6494526D01*
X5984189Y6497421D01*
X5984595Y6500469D01*
X5984341Y6503568D01*
X5983427Y6506464D01*
X5982309Y6508546D01*
X5979820Y6511442D01*
X5977940Y6512814D01*
X5975146Y6514084D01*
X5972149Y6514795D01*
G37*
G36*
X5907836Y6314694D02*
G01*
X5904788Y6314186D01*
X5901283Y6312662D01*
X5899404Y6311290D01*
X5897778Y6309614D01*
X5896102Y6307023D01*
X5895238Y6304889D01*
X5894628Y6301892D01*
X5894730Y6298793D01*
X5895238Y6296507D01*
X5896102Y6294374D01*
X5898286Y6291224D01*
X5900623Y6289192D01*
X5904077Y6287465D01*
X5907074Y6286804D01*
X5970625Y6286703D01*
X5972911Y6286906D01*
X5975858Y6287719D01*
X5977280Y6288379D01*
X5980379Y6290665D01*
X5981903Y6292443D01*
X5983427Y6295085D01*
X5983986Y6296507D01*
X5984494Y6298793D01*
X5984494Y6302654D01*
X5983732Y6305600D01*
X5981903Y6309004D01*
X5980379Y6310731D01*
X5978601Y6312204D01*
X5975858Y6313678D01*
X5972911Y6314541D01*
X5971387Y6314694D01*
G37*
G36*
X5907836Y6464808D02*
G01*
X5904788Y6464300D01*
X5901283Y6462776D01*
X5899404Y6461404D01*
X5897778Y6459728D01*
X5896457Y6457848D01*
X5895035Y6454241D01*
X5894730Y6452768D01*
X5894628Y6449669D01*
X5895492Y6445910D01*
X5896457Y6443827D01*
X5898845Y6440779D01*
X5901944Y6438493D01*
X5904788Y6437376D01*
X5906312Y6437020D01*
X5908598Y6436817D01*
X5972149Y6436918D01*
X5975146Y6437579D01*
X5978601Y6439306D01*
X5980887Y6441338D01*
X5983071Y6444488D01*
X5984189Y6447383D01*
X5984595Y6450431D01*
X5984341Y6453530D01*
X5983427Y6456426D01*
X5982309Y6458508D01*
X5979820Y6461404D01*
X5977940Y6462776D01*
X5975146Y6464046D01*
X5972149Y6464757D01*
G37*
G36*
X5907836Y6564884D02*
G01*
X5904788Y6564375D01*
X5901283Y6562852D01*
X5899404Y6561480D01*
X5897778Y6559803D01*
X5896102Y6557213D01*
X5895238Y6555079D01*
X5894628Y6552031D01*
X5894730Y6548983D01*
X5895238Y6546697D01*
X5896102Y6544564D01*
X5898286Y6541414D01*
X5900623Y6539382D01*
X5904077Y6537655D01*
X5907074Y6536994D01*
X5970625Y6536893D01*
X5972911Y6537096D01*
X5975858Y6537909D01*
X5977280Y6538569D01*
X5980379Y6540855D01*
X5981903Y6542633D01*
X5983427Y6545275D01*
X5983986Y6546697D01*
X5984494Y6548983D01*
X5984494Y6552844D01*
X5983732Y6555790D01*
X5981903Y6559194D01*
X5980379Y6560921D01*
X5978601Y6562394D01*
X5975858Y6563868D01*
X5972911Y6564731D01*
X5971387Y6564884D01*
G37*
G36*
X5907836Y6264656D02*
G01*
X5904788Y6264148D01*
X5901283Y6262624D01*
X5899404Y6261252D01*
X5897778Y6259576D01*
X5896457Y6257696D01*
X5895035Y6254089D01*
X5894730Y6252616D01*
X5894628Y6249517D01*
X5895492Y6245758D01*
X5896457Y6243675D01*
X5898845Y6240627D01*
X5901944Y6238341D01*
X5904788Y6237224D01*
X5906312Y6236868D01*
X5908598Y6236665D01*
X5972149Y6236766D01*
X5975146Y6237427D01*
X5976569Y6237986D01*
X5978601Y6239154D01*
X5980887Y6241186D01*
X5983071Y6244336D01*
X5984189Y6247231D01*
X5984595Y6250279D01*
X5984341Y6253378D01*
X5983427Y6256274D01*
X5982309Y6258356D01*
X5979820Y6261252D01*
X5977940Y6262624D01*
X5975146Y6263894D01*
X5972149Y6264605D01*
G37*
G36*
X5907836Y6364732D02*
G01*
X5904788Y6364224D01*
X5901283Y6362700D01*
X5899404Y6361328D01*
X5897778Y6359652D01*
X5896457Y6357772D01*
X5895035Y6354165D01*
X5894730Y6352692D01*
X5894628Y6349593D01*
X5895492Y6345834D01*
X5896457Y6343751D01*
X5898845Y6340703D01*
X5901944Y6338417D01*
X5904788Y6337300D01*
X5906312Y6336944D01*
X5908598Y6336741D01*
X5972149Y6336842D01*
X5975146Y6337503D01*
X5976569Y6338062D01*
X5978601Y6339230D01*
X5980887Y6341262D01*
X5983071Y6344412D01*
X5984189Y6347307D01*
X5984595Y6350355D01*
X5984341Y6353454D01*
X5983427Y6356350D01*
X5982309Y6358432D01*
X5979820Y6361328D01*
X5977940Y6362700D01*
X5975146Y6363970D01*
X5972149Y6364681D01*
G37*
G36*
X5549595Y6540804D02*
G01*
X5549595Y6260795D01*
X5829604Y6260795D01*
X5829604Y6540804D01*
G37*
G36*
X7417612Y6228892D02*
G01*
X7410907Y6228283D01*
X7404303Y6226860D01*
X7397953Y6224625D01*
X7391908Y6221628D01*
X7386269Y6217920D01*
X7381138Y6213551D01*
X7376566Y6208572D01*
X7372654Y6203086D01*
X7369454Y6197142D01*
X7366965Y6190894D01*
X7365288Y6184341D01*
X7364425Y6177686D01*
X7364323Y6104280D01*
X7364780Y6097574D01*
X7365288Y6094222D01*
X7366965Y6087719D01*
X7369454Y6081420D01*
X7372654Y6075527D01*
X7376566Y6070041D01*
X7381138Y6065062D01*
X7386269Y6060694D01*
X7391908Y6056985D01*
X7397953Y6053988D01*
X7404303Y6051753D01*
X7410907Y6050330D01*
X7417612Y6049670D01*
X7424369Y6049924D01*
X7431024Y6050940D01*
X7437526Y6052769D01*
X7443724Y6055410D01*
X7449566Y6058763D01*
X7454950Y6062776D01*
X7459827Y6067450D01*
X7464044Y6072682D01*
X7467650Y6078423D01*
X7470495Y6084519D01*
X7472578Y6090970D01*
X7473848Y6097574D01*
X7474305Y6104280D01*
X7474305Y6174282D01*
X7473848Y6181039D01*
X7472578Y6187643D01*
X7470495Y6194044D01*
X7467650Y6200190D01*
X7464044Y6205880D01*
X7459827Y6211112D01*
X7454950Y6215786D01*
X7449566Y6219850D01*
X7443724Y6223203D01*
X7437526Y6225844D01*
X7431024Y6227673D01*
X7424369Y6228689D01*
G37*
G36*
X6777634Y6229299D02*
G01*
X6770878Y6228638D01*
X6764274Y6227216D01*
X6761022Y6226200D01*
X6754774Y6223558D01*
X6748932Y6220155D01*
X6743496Y6216091D01*
X6738670Y6211366D01*
X6734403Y6206083D01*
X6730847Y6200343D01*
X6728002Y6194145D01*
X6725970Y6187694D01*
X6724700Y6181039D01*
X6724294Y6174282D01*
X6724396Y6100927D01*
X6724700Y6097524D01*
X6725970Y6090869D01*
X6728002Y6084417D01*
X6730847Y6078270D01*
X6734403Y6072530D01*
X6738670Y6067247D01*
X6743496Y6062522D01*
X6748932Y6058458D01*
X6754774Y6055055D01*
X6761022Y6052413D01*
X6767525Y6050584D01*
X6774230Y6049518D01*
X6780987Y6049314D01*
X6787743Y6049924D01*
X6794347Y6051397D01*
X6800748Y6053632D01*
X6806793Y6056680D01*
X6812432Y6060389D01*
X6817614Y6064808D01*
X6822135Y6069838D01*
X6824218Y6072530D01*
X6827774Y6078270D01*
X6830618Y6084417D01*
X6832650Y6090869D01*
X6833870Y6097524D01*
X6834327Y6104280D01*
X6834225Y6177686D01*
X6833362Y6184392D01*
X6831736Y6190996D01*
X6829298Y6197295D01*
X6826046Y6203238D01*
X6824218Y6206083D01*
X6819950Y6211366D01*
X6815074Y6216091D01*
X6809689Y6220155D01*
X6803847Y6223558D01*
X6797598Y6226200D01*
X6791096Y6228029D01*
X6784390Y6229045D01*
G37*
G36*
X6949287Y6473291D02*
G01*
X6949287Y6343294D01*
X6989318Y6343294D01*
X6989318Y6473291D01*
G37*
G36*
X7209281Y6473291D02*
G01*
X7209281Y6343294D01*
X7249312Y6343294D01*
X7249312Y6473291D01*
G37*
G36*
X7144308Y6473291D02*
G01*
X7144308Y6343294D01*
X7184288Y6343294D01*
X7184288Y6473291D01*
G37*
G36*
X7079284Y6473291D02*
G01*
X7079284Y6343294D01*
X7119315Y6343294D01*
X7119315Y6473291D01*
G37*
G36*
X7014311Y6473291D02*
G01*
X7014311Y6343294D01*
X7054291Y6343294D01*
X7054291Y6473291D01*
G37*
G36*
X7349286Y6452311D02*
G01*
X7349286Y6332270D01*
X7509306Y6332270D01*
X7509306Y6452311D01*
G37*
G36*
X6689293Y6452311D02*
G01*
X6689293Y6332270D01*
X6849313Y6332270D01*
X6849313Y6452311D01*
G37*
G36*
X6224422Y8579408D02*
G01*
X6219393Y8574379D01*
X6219393Y8551621D01*
X6256375Y8551621D01*
X6256375Y8518601D01*
X6219393Y8518601D01*
X6219393Y8494420D01*
X6224422Y8489391D01*
X6304381Y8489391D01*
X6309410Y8494420D01*
X6309410Y8574379D01*
X6304381Y8579408D01*
G37*
G36*
X6065418Y8579408D02*
G01*
X6060389Y8574379D01*
X6060389Y8494420D01*
X6065418Y8489391D01*
X6145377Y8489391D01*
X6150406Y8494420D01*
X6150406Y8517178D01*
X6113424Y8517178D01*
X6113424Y8550198D01*
X6150406Y8550198D01*
X6150406Y8574379D01*
X6145377Y8579408D01*
G37*
G36*
X6224422Y8236508D02*
G01*
X6219393Y8231479D01*
X6219393Y8208721D01*
X6256375Y8208721D01*
X6256375Y8175701D01*
X6219393Y8175701D01*
X6219393Y8151520D01*
X6224422Y8146491D01*
X6304381Y8146491D01*
X6309410Y8151520D01*
X6309410Y8231479D01*
X6304381Y8236508D01*
G37*
G36*
X6065418Y8236508D02*
G01*
X6060389Y8231479D01*
X6060389Y8151520D01*
X6065418Y8146491D01*
X6145377Y8146491D01*
X6150406Y8151520D01*
X6150406Y8174278D01*
X6113424Y8174278D01*
X6113424Y8207298D01*
X6150406Y8207298D01*
X6150406Y8231479D01*
X6145377Y8236508D01*
G37*
G36*
X6224422Y7893608D02*
G01*
X6219393Y7888579D01*
X6219393Y7865821D01*
X6256375Y7865821D01*
X6256375Y7832801D01*
X6219393Y7832801D01*
X6219393Y7808620D01*
X6224422Y7803591D01*
X6304381Y7803591D01*
X6309410Y7808620D01*
X6309410Y7888579D01*
X6304381Y7893608D01*
G37*
G36*
X6065418Y7893608D02*
G01*
X6060389Y7888579D01*
X6060389Y7808620D01*
X6065418Y7803591D01*
X6145377Y7803591D01*
X6150406Y7808620D01*
X6150406Y7831378D01*
X6113424Y7831378D01*
X6113424Y7864398D01*
X6150406Y7864398D01*
X6150406Y7888579D01*
X6145377Y7893608D01*
G37*
D10*
G01*
X7334402Y7048500D03*
G01*
X7194397Y7048500D03*
G01*
X7334402Y7327900D03*
G01*
X7194397Y7327900D03*
G01*
X5315102Y7073900D03*
G01*
X5175097Y7073900D03*
G01*
X5315102Y7962900D03*
G01*
X5175097Y7962900D03*
G01*
X5315102Y7518400D03*
G01*
X5175097Y7518400D03*
G01*
X5315102Y8407400D03*
G01*
X5175097Y8407400D03*
D11*
G01*
X3492500Y6709435D03*
G01*
X3492500Y6539433D03*
G01*
X3479800Y7444638D03*
G01*
X3479800Y7274636D03*
G01*
X3467100Y8174888D03*
G01*
X3467100Y8004886D03*
D12*
G01*
X6599930Y7050913D03*
G01*
X6599930Y7350912D03*
G36*
X6421399Y7295883D02*
G01*
X6425852Y7295776D01*
X6430294Y7295464D01*
X6434719Y7294943D01*
X6439113Y7294217D01*
X6443469Y7293282D01*
X6447774Y7292146D01*
X6452024Y7290810D01*
X6456205Y7289276D01*
X6460309Y7287547D01*
X6464330Y7285629D01*
X6468254Y7283523D01*
X6472077Y7281235D01*
X6475788Y7278771D01*
X6479379Y7276137D01*
X6482841Y7273338D01*
X6486171Y7270376D01*
X6489357Y7267265D01*
X6492394Y7264006D01*
X6495275Y7260610D01*
X6497993Y7257082D01*
X6500543Y7253429D01*
X6502918Y7249662D01*
X6505115Y7245786D01*
X6507129Y7241814D01*
X6508953Y7233884D01*
X6678686Y7233884D01*
X6678686Y7167885D01*
X6508953Y7167885D01*
X6507129Y7159950D01*
X6505115Y7155977D01*
X6502918Y7152101D01*
X6500543Y7148334D01*
X6497993Y7144682D01*
X6495275Y7141154D01*
X6492394Y7137758D01*
X6489357Y7134499D01*
X6486171Y7131387D01*
X6482841Y7128426D01*
X6479379Y7125627D01*
X6475788Y7122993D01*
X6472077Y7120529D01*
X6468254Y7118240D01*
X6464330Y7116135D01*
X6460309Y7114217D01*
X6456205Y7112487D01*
X6452024Y7110953D01*
X6447774Y7109617D01*
X6443469Y7108482D01*
X6439113Y7107547D01*
X6434719Y7106820D01*
X6430294Y7106300D01*
X6425852Y7105987D01*
X6421399Y7105881D01*
X6235979Y7105881D01*
X6231526Y7105987D01*
X6227084Y7106300D01*
X6222659Y7106820D01*
X6218265Y7107547D01*
X6213909Y7108482D01*
X6209604Y7109617D01*
X6205354Y7110953D01*
X6201173Y7112487D01*
X6197069Y7114217D01*
X6193048Y7116135D01*
X6189124Y7118240D01*
X6185301Y7120529D01*
X6181590Y7122993D01*
X6177998Y7125627D01*
X6174536Y7128426D01*
X6171206Y7131387D01*
X6168021Y7134499D01*
X6164983Y7137758D01*
X6162103Y7141154D01*
X6159385Y7144682D01*
X6156835Y7148334D01*
X6154460Y7152101D01*
X6152263Y7155977D01*
X6150249Y7159950D01*
X6148425Y7164014D01*
X6146792Y7168156D01*
X6145357Y7172373D01*
X6144120Y7176653D01*
X6143086Y7180986D01*
X6142255Y7185360D01*
X6141631Y7189772D01*
X6141214Y7194207D01*
X6141006Y7198654D01*
X6141006Y7203109D01*
X6141214Y7207557D01*
X6141631Y7211992D01*
X6142255Y7216404D01*
X6143086Y7220778D01*
X6144120Y7225111D01*
X6145357Y7229391D01*
X6146792Y7233607D01*
X6148425Y7237750D01*
X6150249Y7241814D01*
X6152263Y7245786D01*
X6154460Y7249662D01*
X6156835Y7253429D01*
X6159385Y7257082D01*
X6162103Y7260610D01*
X6164983Y7264006D01*
X6168021Y7267265D01*
X6171206Y7270376D01*
X6174536Y7273338D01*
X6177998Y7276137D01*
X6181590Y7278771D01*
X6185301Y7281235D01*
X6189124Y7283523D01*
X6193048Y7285629D01*
X6197069Y7287547D01*
X6201173Y7289276D01*
X6205354Y7290810D01*
X6209604Y7292146D01*
X6213909Y7293282D01*
X6218265Y7294217D01*
X6222659Y7294943D01*
X6227084Y7295464D01*
X6231526Y7295776D01*
X6235979Y7295883D01*
G37*
D13*
G01*
X4660011Y7855204D03*
G01*
X4660011Y8045195D03*
G01*
X4460011Y7950200D03*
G01*
X4660011Y7080504D03*
G01*
X4660011Y7270495D03*
G01*
X4460011Y7175500D03*
D14*
G01*
X830681Y6572224D03*
G01*
X957681Y6572224D03*
G01*
X1084681Y6572224D03*
G01*
X1211681Y6572224D03*
G01*
X1338681Y6572224D03*
G01*
X1465681Y6572224D03*
G01*
X1592681Y6572224D03*
G01*
X1719681Y6572224D03*
G01*
X1846681Y6572224D03*
G01*
X1973681Y6572224D03*
G01*
X2100681Y6572224D03*
G01*
X2227681Y6572224D03*
G01*
X2354681Y6572224D03*
G01*
X2481681Y6572224D03*
D15*
G01*
X2623718Y6870700D03*
G01*
X2623718Y6997700D03*
G01*
X2623718Y7124700D03*
G01*
X2623718Y7251700D03*
G01*
X2623718Y7378700D03*
G01*
X2623693Y7505700D03*
G01*
X2623693Y7632700D03*
G01*
X2623693Y7759700D03*
G01*
X2623693Y7886700D03*
G01*
X2623693Y8013700D03*
D14*
G01*
X2481681Y8312175D03*
G01*
X2354681Y8312175D03*
G01*
X2227681Y8312175D03*
G01*
X2100681Y8312175D03*
G01*
X1973681Y8312175D03*
G01*
X1846681Y8312175D03*
G01*
X1719681Y8312175D03*
G01*
X1592681Y8312175D03*
G01*
X1465681Y8312175D03*
G01*
X1338681Y8312175D03*
G01*
X1211681Y8312175D03*
G01*
X1084681Y8312175D03*
G01*
X957681Y8312175D03*
G01*
X830681Y8312175D03*
D16*
G01*
X1584985Y7340498D03*
M02*
